<?xml version="1.0" encoding="utf-8"?>
<!-- Generator: Adobe Illustrator 15.0.0, SVG Export Plug-In . SVG Version: 6.00 Build 0)  -->
<!DOCTYPE svg PUBLIC "-//W3C//DTD SVG 1.1//EN" "http://www.w3.org/Graphics/SVG/1.1/DTD/svg11.dtd">
<svg version="1.1"
	 id="svg2536" xmlns:rdf="http://www.w3.org/1999/02/22-rdf-syntax-ns#" xmlns:svg="http://www.w3.org/2000/svg" xmlns:cc="http://creativecommons.org/ns#" xmlns:dc="http://purl.org/dc/elements/1.1/"
	 xmlns="http://www.w3.org/2000/svg" xmlns:xlink="http://www.w3.org/1999/xlink" x="0px" y="0px" width="595.275px"
	 height="841.891px" viewBox="0 0 595.275 841.891" enable-background="new 0 0 595.275 841.891" xml:space="preserve">
<title  id="title3036">Ernesto Che Guevara Vector Pattern</title>
<path id="path2586" fill="none" stroke="#84C225" stroke-width="0.018" stroke-linecap="round" stroke-linejoin="round" d="
	M131.189,563.232c0.27-2.977,0.539-5.954-0.304-9.945s-2.799-8.999-4.316-12.82c-1.519-3.822-2.599-6.462-3.677-9.1
	c-1.282,3.179-2.564,6.359-5.094,8.896c-2.53,2.536-6.309,4.432-10.052,6.19c-3.745,1.759-7.454,3.383-10.456,4.228
	c-3.003,0.847-5.297,0.914-7.591,0.982c1.957-3.991,3.914-7.984,5.363-11.976c1.451-3.991,2.396-7.984,3.542-10.859
	c1.147-2.874,2.497-4.635,3.846-6.394c-2.429-0.067-4.858-0.135-9.175-0.202c-4.317-0.068-10.524-0.136-14.571-0.406
	c-4.048-0.271-5.937-0.744-7.589-1.86c-1.653-1.117-3.07-2.876-4.082-4.669s-1.62-3.62-2.058-5.311
	c-0.438-1.691-0.709-3.248-1.889-5.277c-1.181-2.03-3.273-4.534-4.689-7.341c-1.417-2.808-2.158-5.921-2.9-9.032
	c2.294,2.57,4.587,5.143,7.454,7.138c2.867,1.996,6.308,3.417,10.49,4.161s9.107,0.812,14.032,0.879
	c-4.521-2.367-9.04-4.736-13.188-7.745c-4.148-3.011-7.928-6.666-10.321-10.589c-2.396-3.924-3.407-8.12-3.88-11.841
	s-0.403-6.969,0.675-9.742c1.079-2.773,3.171-5.075,4.992-6.8c1.821-1.726,3.373-2.875,4.925-4.025
	c-0.539,2.909-1.08,5.819-1.484,8.288c-0.404,2.47-0.675,4.499-0.067,6.799c0.607,2.301,2.091,4.872,4.857,7.037
	c2.766,2.164,6.813,3.924,9.781,4.871c2.969,0.947,4.858,1.082,6.207,0.981c1.349-0.103,2.159-0.44,2.294-1.252
	s-0.405-2.098-0.54-3.146c-0.135-1.048,0.136-1.86,0.944-3.044c0.81-1.184,2.159-2.741,3.575-4.025
	c1.417-1.286,2.901-2.301,3.778-3.349c0.877-1.05,1.147-2.132,0.743-3.654c-0.405-1.522-1.485-3.484-3.104-5.886
	s-3.778-5.244-5.565-7.408c-1.787-2.165-3.205-3.654-4.452-4.635c-1.248-0.981-2.328-1.455-4.014-1.016
	c-1.687,0.44-3.981,1.793-7.05,3.383c-3.069,1.59-6.916,3.417-10.929,4.297c-4.015,0.879-8.197,0.812-12.885-0.067
	c-4.689-0.88-9.885-2.572-13.189-5.549c-3.306-2.976-4.723-7.239-4.824-11.265c-0.101-4.025,1.114-7.814,2.463-10.013
	c1.35-2.198,2.833-2.809,4.048-3.383c1.214-0.575,2.159-1.116,3.104-1.658c-1.282,2.706-2.563,5.413-2.597,8.593
	c-0.034,3.18,1.18,6.834,2.899,9.033c1.721,2.198,3.947,2.942,6.207,3.213s4.554,0.067,6.61-0.777
	c2.058-0.847,3.88-2.335,5.532-4.061c1.653-1.725,3.137-3.688,4.317-6.359s2.059-6.056,1.924-9.675
	c-0.136-3.619-1.282-7.477-1.923-11.062c-0.641-3.585-0.777-6.901-0.608-10.452c0.169-3.552,0.642-7.342,0.811-10.148
	c0.169-2.808,0.033-4.636-0.607-6.259c-0.641-1.624-1.788-3.045-3.744-4.229c-1.956-1.185-4.723-2.132-7.387-3.586
	c-2.665-1.454-5.229-3.417-6.949-5.514c-1.72-2.098-2.598-4.331-3.474-6.562c1.956,1.69,3.912,3.383,6.038,4.837
	c2.125,1.454,4.419,2.673,6.138,3.247c1.721,0.575,2.868,0.508,3.341,0.102c0.472-0.405,0.269-1.149-0.338-2.502
	c-0.607-1.354-1.619-3.316-1.99-5.582c-0.371-2.267-0.102-4.838,0.169-7.409c0.539,2.165,1.079,4.331,2.192,6.056
	s2.8,3.011,4.418,3.653c1.619,0.643,3.171,0.643,4.25,0.169c1.08-0.474,1.688-1.421,1.891-2.706s-0.001-2.909-0.676-4.229
	c-0.674-1.318-1.821-2.334-3.001-3.789c-1.181-1.454-2.396-3.349-3.036-5.107c-0.641-1.759-0.709-3.384-1.586-4.635
	c-0.877-1.252-2.564-2.131-4.688-2.639c-2.125-0.508-4.689-0.643-6.544-0.981c-1.854-0.338-3.002-0.879-4.654-0.947
	c-1.652-0.067-3.812,0.339-6.24,1.184c-2.429,0.847-5.128,2.132-7.657,3.553s-4.892,2.978-7.894,3.214
	c-3.001,0.236-6.645-0.846-10.287-1.929c2.9-0.27,5.802-0.541,8.804-1.454c3.001-0.913,6.105-2.47,8.534-4.127
	c2.428-1.657,4.182-3.417,6.037-4.397c1.855-0.981,3.812-1.184,5.734-1.421c1.923-0.236,3.812-0.508,6.713-1.624
	s6.813-3.078,9.646-4.736c2.834-1.657,4.588-3.011,8.062-4.701c3.475-1.692,8.67-3.722,12.042-5.582
	c3.373-1.86,4.925-3.553,6.982-5.413c2.057-1.859,4.621-3.891,7.083-5.886c2.462-1.996,4.824-3.958,6.746-7.138
	c1.923-3.18,3.407-7.578,5.228-11.637c1.822-4.06,3.981-7.781,5.33-10.487c1.35-2.706,1.89-4.397,2.429-6.089
	c-1.214-2.368-2.429-4.737-4.655-9.134c-2.226-4.397-5.464-10.825-7.318-16.576c-1.855-5.75-2.327-10.825-2.497-14.85
	c-0.168-4.025-0.033-7.004,0.877-9.607c0.911-2.605,2.599-4.838,4.015-6.935c1.416-2.098,2.563-4.061,2.968-6.226
	c0.405-2.164,0.067-4.533-0.337-7.712c-0.404-3.18-0.877-7.172-0.473-11.638c0.405-4.465,1.688-9.405,3.508-13.294
	c1.822-3.891,4.184-6.733,5.903-9.101s2.8-4.263,3.44-6.562s0.844-5.007,3.407-8.49c2.563-3.484,7.488-7.748,10.794-10.453
	c3.306-2.707,4.992-3.857,7.656-6.36c2.665-2.503,6.309-6.359,10.963-10.554s10.322-8.729,17.102-12.686
	c6.779-3.958,14.673-7.342,22.6-10.251c7.926-2.908,15.888-5.345,22.531-7.07c6.646-1.725,11.976-2.739,16.562-3.349
	s8.434-0.812,11.502-1.521c3.069-0.71,5.363-1.929,9.748-2.604c4.385-0.678,10.862-0.812,17.54-0.475
	c6.679,0.338,13.561,1.151,18.586,2.267c5.025,1.116,8.196,2.537,11.873,2.977c3.677,0.44,7.859-0.101,12.008-0.202
	s8.265,0.236,11.84,1.353s6.611,3.011,10.523,5.311c3.913,2.301,8.703,5.008,14.066,7.307c5.363,2.301,11.3,4.196,20.778,6.665
	c9.478,2.469,22.498,5.515,31.941,8.592c9.445,3.079,15.315,6.191,21.318,9.574c6.004,3.383,12.144,7.037,17.878,11.163
	c5.733,4.127,11.063,8.728,15.213,15.188c4.148,6.461,7.116,14.783,9.376,19.587c2.26,4.803,3.812,6.09,7.05,9.066
	s8.163,7.646,12.379,12.279c4.217,4.634,7.725,9.236,9.31,13.431c1.586,4.194,1.248,7.983,1.855,10.96s2.159,5.142,3.778,8.964
	c1.619,3.823,3.306,9.304,4.52,15.122c1.214,5.817,1.957,11.975,1.722,17.895c-0.236,5.92-1.451,11.604-1.823,14.58
	c-0.37,2.977,0.102,3.248,1.114,3.45c1.012,0.203,2.563,0.339,4.52,0.406s4.317,0.067,6.881,0.339
	c2.563,0.271,5.329,0.812,8.263,1.623c2.936,0.812,6.04,1.896,9.143,2.978c-5.127-0.338-10.254-0.677-16.156-0.204
	c-5.903,0.474-12.582,1.761-16.09,2.809c-3.508,1.049-3.847,1.86-4.317,2.74c-0.473,0.88-1.081,1.826-0.709,2.469
	c0.37,0.644,1.721,0.981,3.407,1.692c1.687,0.71,3.71,1.793,4.991,2.977s1.822,2.47,2.125,3.755
	c0.304,1.285,0.372,2.571,0.405,3.586s0.033,1.76,0.404,2.673c0.371,0.912,1.113,1.995,1.484,3.179
	c0.371,1.185,0.371,2.471,0.135,3.789c-0.236,1.319-0.708,2.674-1.181,4.025c-0.606-2.164-1.215-4.33-2.428-7.137
	c-1.215-2.808-3.037-6.259-5.297-8.559c-2.259-2.301-4.958-3.451-6.745-3.79c-1.787-0.338-2.665,0.136-2.564,1.759
	c0.102,1.624,1.182,4.398,2.699,7.544c1.518,3.146,3.475,6.665,5.667,9.438c2.192,2.774,4.621,4.805,6.712,6.123
	c2.091,1.319,3.846,1.929,5.127,1.794c1.282-0.136,2.092-1.017,2.698-2.978c0.607-1.961,1.013-5.007,1.417-8.051
	c0.404,2.232,0.81,4.466,1.079,6.935s0.405,5.176,0.709,6.901c0.303,1.725,0.776,2.469,2.496,3.28
	c1.72,0.812,4.688,1.692,7.791,2.47c3.104,0.778,6.342,1.455,9.006,2.639c2.664,1.185,4.757,2.876,6.68,4.905
	c1.922,2.029,3.676,4.398,4.587,5.953c0.91,1.557,0.979,2.301,1.046,3.045c-1.957-1.894-3.913-3.789-6.139-5.209
	c-2.227-1.421-4.723-2.368-6.375-2.537s-2.463,0.439-0.305,2.672c2.159,2.232,7.287,6.09,11.672,11.332
	c4.384,5.243,8.027,11.874,11.67,18.505c-2.496-3.112-4.992-6.225-8.433-9.811c-3.439-3.585-7.825-7.646-11.704-10.047
	s-7.253-3.146-9.311-2.673c-2.057,0.474-2.799,2.166-3.474,4.263c-0.674,2.097-1.281,4.602-0.911,11.265
	c0.372,6.664,1.722,17.489,2.732,25.27c1.012,7.781,1.687,12.518,1.721,18.031s-0.573,11.807-1.99,18.302
	c-1.416,6.495-3.643,13.192-5.971,18.198c-2.327,5.007-4.756,8.323-6.173,11.164c-1.416,2.842-1.821,5.21-1.788,6.799
	c0.034,1.59,0.508,2.403,0.406,3.755c-0.101,1.354-0.776,3.248-1.147,5.751c-0.371,2.504-0.438,5.617,0.101,8.491
	c0.54,2.875,1.688,5.515,1.688,8.728c0,3.214-1.147,7.003-1.855,10.284s-0.979,6.056-1.248,8.829
	c-0.472-1.894-0.944-3.789-1.788-5.379c-0.843-1.59-2.058-2.875-2.799-2.706c-0.742,0.169-1.013,1.794-1.147,4.6
	c-0.135,2.809-0.135,6.801-1.314,11.875c-1.182,5.074-3.544,11.23-6.982,15.764c-3.441,4.532-7.961,7.443-11.367,9.101
	c-3.407,1.656-5.701,2.062-7.252,2.198c-1.552,0.136-2.362,0-3.172-0.136c1.417-1.149,2.834-2.3,4.723-4.059
	c1.889-1.76,4.251-4.127,5.465-6.8c1.214-2.672,1.282-5.649,1.08-7.713c-0.203-2.063-0.677-3.214-1.384-3.586
	c-0.709-0.372-1.653,0.034-2.529,0.609c-0.878,0.575-1.688,1.319-2.733,1.59c-1.045,0.271-2.327,0.067-3.879-0.846
	c-1.551-0.913-3.373-2.538-5.329-4.161c-1.956-1.624-4.048-3.248-6.308-4.127c-2.26-0.88-4.689-1.016-7.083-1.049
	c-2.395-0.034-4.757,0.033-6.072,0.338s-1.586,0.846-0.202,1.793c1.383,0.947,4.419,2.301,6.746,3.721
	c2.327,1.421,3.947,2.91,5.296,5.108c1.349,2.199,2.429,5.109,2.665,7.882c0.236,2.774-0.372,5.413-2.294,7.883
	c-1.923,2.469-5.161,4.771-8.062,6.326s-5.465,2.367-6.915,3.349c-1.45,0.98-1.788,2.132-1.586,3.349
	c0.203,1.218,0.945,2.504,1.519,3.788c0.573,1.286,0.979,2.572,1.147,4.602s0.1,4.804,0.303,8.051
	c0.203,3.248,0.675,6.969,1.585,10.655c0.911,3.688,2.261,7.342,4.554,11.028c2.294,3.688,5.532,7.409,8.163,9.676
	s4.655,3.078,7.455,4.094c2.799,1.015,6.375,2.232,9.95,3.45"/>
<path id="path2588" fill="none" stroke="#84C225" stroke-width="0.018" stroke-linecap="round" stroke-linejoin="round" d="
	M245.536,377.617c-1.146-1.049-2.294-2.401-2.9-3.89s-0.675-3.113-0.541-4.838c0.136-1.726,0.474-3.552,1.148-5.04
	s1.687-2.64,3.305-3.586c1.619-0.947,3.846-1.691,6.274-2.334s5.061-1.185,7.421-0.947c2.36,0.236,4.452,1.252,6.712,1.826
	c2.26,0.575,4.689,0.711,7.286,0.812c2.598,0.103,5.363,0.17,7.589-0.033c2.227-0.203,3.914-0.677,5.431-1.421
	c1.518-0.744,2.868-1.759,5.263-2.436s5.835-1.015,9.073-1.184c3.238-0.17,6.273-0.17,8.669-0.271
	c2.395-0.103,4.148-0.306,6.037,0.337c1.89,0.644,3.913,2.132,5.836,3.925c1.922,1.792,3.745,3.891,4.688,5.548
	c0.944,1.657,1.013,2.875,0.642,4.499s-1.182,3.654-2.766,4.771c-1.586,1.116-3.948,1.319-6.882,1.521
	c-2.935,0.203-6.442,0.406-8.771,0c-2.327-0.405-3.474-1.421-3.508-2.401s1.046-1.929,1.619-2.808s0.642-1.691-0.201-2.131
	c-0.845-0.44-2.599-0.508-3.981-0.44s-2.395,0.271-3.812,0.271c-1.416,0-3.238-0.203-4.924-0.677
	c-1.687-0.474-3.239-1.218-4.487-1.318c-1.247-0.103-2.192,0.439-2.731,1.353c-0.54,0.913-0.675,2.199-1.519,3.281
	c-0.843,1.082-2.395,1.963-4.114,2.402c-1.721,0.439-3.61,0.439-5.262-0.136c-1.653-0.574-3.07-1.726-4.082-2.977
	c-1.012-1.252-1.619-2.605-2.53-3.146c-0.91-0.541-2.125-0.271-2.968,0.541c-0.843,0.812-1.315,2.166-2.293,2.909
	c-0.979,0.744-2.464,0.881-4.149,0.745c-1.687-0.136-3.576-0.542-5.06-1.117c-1.484-0.574-2.564-1.318-3.373-1.251
	c-0.81,0.067-1.35,0.947-1.519,2.232s0.034,2.978,0.438,4.702s1.013,3.484,0.777,4.363c-0.236,0.88-1.316,0.88-2.43,0.508
	C247.831,379.411,246.683,378.666,245.536,377.617L245.536,377.617z"/>
<path id="path2590" fill="none" stroke="#84C225" stroke-width="0.018" stroke-linecap="round" stroke-linejoin="round" d="
	M236.294,410.197c-2.496,0.947-5.331,2.097-7.894,3.111c-2.563,1.016-4.857,1.895-6.948,3.282c-2.092,1.386-3.98,3.281-5.835,4.973
	c-1.855,1.691-3.678,3.18-5.128,4.904c-1.45,1.726-2.53,3.688-2.867,5.818c-0.337,2.131,0.068,4.433-0.066,6.8
	c-0.136,2.368-0.811,4.805-0.608,6.022s1.283,1.218,1.855,2.096c0.572,0.88,0.642,2.641,0.473,4.398
	c-0.169,1.759-0.574,3.519,0.1,5.006c0.676,1.489,2.43,2.707,3.778,4.026c1.35,1.319,2.295,2.74,3.509,3.078
	c1.214,0.339,2.698-0.405,3.71-1.386c1.013-0.981,1.552-2.2,1.99-4.466c0.438-2.267,0.777-5.583,1.147-8.593
	c0.371-3.011,0.776-5.718,1.383-7.408c0.606-1.691,1.417-2.368,1.822-3.653c0.403-1.285,0.403-3.181,0.909-4.974
	c0.507-1.793,1.519-3.484,3.171-4.362c1.652-0.88,3.947-0.948,6.038-1.286c2.091-0.339,3.981-0.947,4.79-1.691
	c0.81-0.744,0.54-1.624,0.438-2.74s-0.033-2.47,0.438-3.856c0.473-1.387,1.351-2.809,2.599-4.094c1.247-1.285,2.867-2.436,4.08-3.45
	c1.215-1.015,2.024-1.895,2.059-2.638c0.033-0.745-0.709-1.354-2.192-1.557c-1.484-0.203-3.711,0-5.902,0.473
	C240.948,408.505,238.789,409.25,236.294,410.197L236.294,410.197z"/>
<path id="path2592" fill="none" stroke="#84C225" stroke-width="0.018" stroke-linecap="round" stroke-linejoin="round" d="
	M249.28,266.203c-1.029-0.828-2.548-2.148-3.998-2.994c-1.45-0.845-2.833-1.218-4.334-0.947c-1.501,0.271-3.121,1.185-4.554,1.624
	c-1.434,0.44-2.683,0.406-3.761,0.119c-1.08-0.288-1.991-0.829-3.222-1.218s-2.783-0.627-4.368-0.238
	c-1.585,0.39-3.205,1.404-4.57,1.946c-1.366,0.541-2.479,0.609-3.356,0.39c-0.877-0.221-1.518-0.729-2.176-1.218
	c-0.657-0.491-1.332-0.965-2.58-0.812c-1.247,0.152-3.069,0.931-5.211,1.336c-2.142,0.406-4.604,0.44-6.577,0.237
	c-1.974-0.203-3.458-0.644-5.465-1.15c-2.007-0.508-4.538-1.083-6.763-1.37c-2.227-0.287-4.15-0.287-6.309-0.136
	c-2.158,0.152-4.554,0.457-6.628,1.86s-3.828,3.908-5.649,5.751c-1.821,1.844-3.711,3.028-5.127,4.686
	c-1.416,1.658-2.361,3.789-2.429,5.699c-0.067,1.912,0.742,3.604,1.99,5.159c1.248,1.557,2.935,2.978,4.874,3.653
	c1.939,0.677,4.132,0.609,5.971,0.034c1.838-0.574,3.322-1.657,4.064-2.604s0.742-1.759,0.927-2.452
	c0.187-0.693,0.557-1.269,1.299-1.438c0.742-0.17,1.855,0.067,3.475-0.102s3.744-0.745,5.717-1.15
	c1.974-0.406,3.796-0.644,5.194-0.745c1.4-0.102,2.379-0.066,2.362,0.491c-0.018,0.558-1.029,1.641-2.58,3.027
	c-1.552,1.387-3.645,3.079-5.702,4.414c-2.057,1.337-4.081,2.318-6.762,3.891c-2.683,1.573-6.021,3.738-9.344,6.31
	c-3.322,2.57-6.628,5.548-7.522,8.423c-0.894,2.875,0.625,5.65,2.446,7.442c1.82,1.793,3.946,2.605,5.801,2.572
	c1.854-0.035,3.441-0.914,5.026-1.997c1.585-1.082,3.171-2.368,5.565-2.317c2.395,0.05,5.6,1.438,8.433,1.995
	c2.833,0.559,5.297,0.288,6.797-0.168c1.501-0.457,2.041-1.1,1.872-1.557s-1.046-0.728-2.074-0.862
	c-1.029-0.136-2.21-0.136-3.39-0.271c-1.181-0.136-2.362-0.406-3.29-0.609c-0.927-0.203-1.602-0.338-1.854-0.643
	s-0.084-0.778,0.186-1.234c0.271-0.457,0.641-0.896,0.978-1.641c0.338-0.744,0.643-1.793,0.911-2.622
	c0.271-0.828,0.507-1.438,1.08-2.062c0.573-0.627,1.483-1.27,2.276-1.861s1.468-1.133,1.956-1.455
	c0.489-0.32,0.794-0.423,1.097-0.203c0.304,0.22,0.606,0.762,1.079,1.488c0.473,0.728,1.113,1.642,2.176,2.538
	c1.062,0.896,2.547,1.776,4.047,2.147c1.501,0.372,3.021,0.237,4.808-0.084c1.788-0.321,3.845-0.829,5.211-1.675
	s2.041-2.03,2.749-3.552s1.45-3.384,1.938-4.871c0.489-1.488,0.727-2.605,1.132-3.214c0.404-0.608,0.979-0.711,2.003-0.652
	c1.024,0.06,2.503,0.28,4.139,0.61c1.637,0.33,3.433,0.771,4.836,1.271c1.402,0.498,2.414,1.056,3.476,1.791
	c1.062,0.734,2.176,1.648,3.372,2.359c1.197,0.71,2.48,1.218,2.952,1.116c0.473-0.102,0.134-0.812,0.083-1.691
	c-0.05-0.88,0.188-1.929,0.827-2.571c0.642-0.643,1.688-0.88,2.8-1.234c1.113-0.355,2.294-0.829,3.728-1.624
	c1.433-0.795,3.12-1.911,4.3-3.061c1.181-1.15,1.856-2.336,2.025-3.52c0.168-1.184-0.17-2.368-0.658-4.414
	c-0.489-2.047-1.131-4.957-2.091-7.206c-0.962-2.249-2.244-3.839-3.154-4.803C250.848,267.37,250.308,267.032,249.28,266.203
	L249.28,266.203z"/>
<path id="path2594" fill="none" stroke="#84C225" stroke-width="0.018" stroke-linecap="round" stroke-linejoin="round" d="
	M262.333,388.173c-1.079,0.778-2.361,2.471-3.643,3.654s-2.563,1.86-3.474,3.28c-0.911,1.421-1.451,3.587-1.586,5.075
	s0.136,2.301,0.404,3.519c0.271,1.218,0.54,2.842,0.642,4.093s0.033,2.132,0.472,2.909c0.438,0.778,1.384,1.455,2.125,1.793
	c0.742,0.339,1.283,0.339,2.261-0.033c0.978-0.373,2.395-1.117,3.474-2.604c1.079-1.489,1.821-3.723,2.294-6.191
	c0.472-2.469,0.675-5.176,0.81-7.408c0.135-2.233,0.203-3.992,0.034-5.345c-0.169-1.354-0.574-2.301-1.214-2.842
	C264.29,387.531,263.412,387.395,262.333,388.173L262.333,388.173z"/>
<path id="path2596" fill="none" stroke="#84C225" stroke-width="0.018" stroke-linecap="round" stroke-linejoin="round" d="
	M131.189,563.232c0.725,4.557,1.451,9.114,5.926,14.897c4.475,5.784,12.7,12.796,21.8,18.12c9.101,5.327,19.079,8.967,27.64,12.001
	c8.562,3.033,15.709,5.46,22.314,6.876c6.606,1.416,12.674,1.82,16.179,1.214c3.506-0.607,4.45-2.226,3.103-4.585
	c-1.35-2.358-4.989-5.461-7.686-8.089c-2.696-2.629-4.45-4.787-5.191-6.202c-0.742-1.416-0.472-2.091,1.349-2.428
	c1.819-0.337,5.19-0.337,9.775-0.337c4.583,0,10.382,0,15.234-0.269c4.854-0.271,8.765-0.811,13.079-0.676
	c4.313,0.136,9.034,0.944,12.674,2.765s6.202,4.651,9.235,7.28c3.033,2.63,6.54,5.057,9.91,6.675
	c3.37,1.617,6.606,2.427,8.291,1.819c1.687-0.606,1.821-2.629,1.215-5.258s-1.956-5.865-2.09-8.696
	c-0.136-2.831,0.943-5.259,2.156-6.472c1.214-1.214,2.562-1.214,4.247,0.337c1.686,1.55,3.709,4.652,5.124,7.887
	c1.415,3.236,2.225,6.607,3.977,10.112c1.753,3.506,4.45,7.146,7.821,11.596c3.37,4.449,7.415,9.707,11.056,13.482
	c3.64,3.775,6.876,6.068,17.055,10.314c10.18,4.247,27.304,10.45,39.842,12.741c12.539,2.292,20.495,0.675,28.112-1.888
	c7.618-2.561,14.898-6.067,20.764-10.313c5.865-4.247,10.314-9.236,12-14.225s0.605-9.978,0.337-13.617
	c-0.271-3.641,0.27-5.934,1.617-6.944c1.349-1.012,3.506-0.74,6.202-0.338c2.696,0.405,5.933,0.945,10.869,0.784
	c4.937-0.16,11.575-1.021,18.213-1.882"/>
<path id="path2598" fill="none" stroke="#84C225" stroke-width="0.018" stroke-linecap="round" stroke-linejoin="round" d="
	M303.722,328.704c-0.911,0.846-1.519,2.2-1.722,3.451c-0.202,1.251,0.001,2.401,0.574,3.619c0.573,1.219,1.519,2.504,2.395,3.653
	c0.877,1.15,1.688,2.166,2.767,2.842c1.078,0.677,2.429,1.015,3.439,1.421c1.013,0.406,1.688,0.88,2.126,1.387
	c0.438,0.508,0.641,1.049,0.978,1.354c0.338,0.305,0.81,0.372,1.045,0c0.236-0.372,0.236-1.185-0.032-2.401
	c-0.271-1.218-0.811-2.843-1.586-4.5c-0.776-1.657-1.788-3.349-2.934-4.871c-1.148-1.521-2.43-2.876-3.07-4.093
	c-0.642-1.218-0.642-2.301-1.248-2.672C305.846,327.52,304.632,327.859,303.722,328.704L303.722,328.704z"/>
<path id="path2600" fill="none" stroke="#84C225" stroke-width="0.018" stroke-linecap="round" stroke-linejoin="round" d="
	M366.63,370.851c-1.754,0.642-2.835,1.725-3.678,3.348c-0.843,1.624-1.451,3.79-2.158,5.075c-0.708,1.285-1.519,1.691-1.755,2.639
	s0.103,2.436,0.844,4.093c0.742,1.657,1.89,3.485,1.822,5.379c-0.068,1.895-1.351,3.857-2.092,5.379
	c-0.742,1.521-0.944,2.605-0.439,3.146c0.507,0.541,1.721,0.541,3.271,0.034c1.552-0.508,3.442-1.523,5.331-2.876
	c1.889-1.354,3.777-3.045,5.396-5.615c1.618-2.571,2.969-6.022,3.609-9.101c0.642-3.077,0.572-5.785-0.135-7.813
	c-0.708-2.029-2.059-3.384-3.947-3.958C370.812,370.005,368.383,370.209,366.63,370.851L366.63,370.851z"/>
<path id="path2602" fill="none" stroke="#84C225" stroke-width="0.018" stroke-linecap="round" stroke-linejoin="round" d="
	M295.759,371.749c-1.062-0.152-1.974-0.187-2.58,0.05c-0.607,0.237-0.912,0.745-1.147,1.354s-0.405,1.32,0.15,2.216
	c0.558,0.896,1.84,1.979,3.121,2.858c1.282,0.88,2.563,1.557,3.475,1.793c0.911,0.237,1.45,0.034,1.905-0.423
	c0.456-0.456,0.827-1.167,0.962-1.995c0.135-0.829,0.033-1.776-0.404-2.656c-0.438-0.88-1.215-1.691-2.21-2.232
	C298.035,372.171,296.822,371.9,295.759,371.749L295.759,371.749z"/>
<path id="path2604" fill="none" stroke="#84C225" stroke-width="0.018" stroke-linecap="round" stroke-linejoin="round" d="
	M504.451,466.79c-1.619,0.981-3.576,2.741-5.195,4.5c-1.619,1.758-2.901,3.518-3.44,4.837c-0.54,1.319-0.338,2.198,0.438,2.3
	c0.775,0.102,2.125-0.575,3.237-0.946c1.113-0.373,1.991-0.44,2.666,0.033s1.146,1.488,1.551,2.773
	c0.404,1.286,0.743,2.843,1.282,4.5s1.281,3.417,2.091,3.992c0.81,0.574,1.688-0.034,2.059-2.165
	c0.371-2.132,0.235-5.786,0.101-9.101s-0.271-6.293-0.371-8.254c-0.101-1.962-0.169-2.909-0.843-3.281
	C507.352,465.606,506.07,465.809,504.451,466.79L504.451,466.79z"/>
<path id="path2606" fill="none" stroke="#1F1A17" stroke-width="0.018" stroke-linecap="round" stroke-linejoin="round" d="
	M256.223,146.715c-0.812-0.771-1.471-1.421-2.063-1.838c-0.592-0.417-1.121-0.604-1.905-0.238c-0.784,0.365-1.825,1.284-2.714,2.222
	c-0.889,0.937-1.628,1.892-2.302,2.586s-1.285,1.128-1.836,1.213c-0.551,0.086-1.042-0.179-1.1-0.972s0.317-2.117,0.728-3.358
	c0.409-1.241,0.854-2.401,1.123-3.476c0.271-1.073,0.367-2.064,0.065-2.649c-0.303-0.584-1.007-0.763-2.293-1.147
	c-1.287-0.385-3.16-0.976-4.695-1.521c-1.536-0.547-2.738-1.049-3.637-1.514c-0.898-0.466-1.495-0.895-1.473-1.28
	c0.021-0.385,0.662-0.728,1.5-1.049c0.837-0.32,1.87-0.619,3.073-0.937c1.203-0.318,2.578-0.657,3.8-0.843s2.294-0.22,3.044-0.329
	c0.75-0.107,1.182-0.291,1.373-0.753c0.191-0.461,0.146-1.202,0.174-2.321c0.028-1.118,0.132-2.616,0.243-4.186
	c0.11-1.568,0.229-3.21,0.397-4.288c0.168-1.077,0.387-1.593,0.699-2.014c0.312-0.42,0.72-0.747,1.181-0.688
	c0.459,0.059,0.975,0.504,1.455,1.337c0.479,0.833,0.926,2.057,1.354,3.204c0.428,1.147,0.837,2.22,1.326,3.436
	c0.488,1.214,1.056,2.573,1.755,3.346c0.698,0.772,1.529,0.958,2.665,0.89c1.135-0.068,2.577-0.392,4.009-0.699
	c1.434-0.307,2.861-0.601,4.167-0.744c1.305-0.145,2.489-0.143,3.146,0.07c0.656,0.214,0.786,0.637,0.658,1.197
	c-0.127,0.56-0.512,1.256-1.598,2.057c-1.086,0.803-2.873,1.709-4.498,2.517c-1.625,0.807-3.089,1.516-4.096,1.988
	c-1.006,0.472-1.558,0.708-1.828,1.027c-0.271,0.318-0.263,0.72-0.017,1.398s0.73,1.638,1.51,3.063s1.854,3.319,2.479,4.696
	c0.624,1.377,0.799,2.24,0.905,2.954c0.106,0.712,0.146,1.28,0.003,1.605s-0.468,0.41-1.17,0.138
	c-0.702-0.273-1.782-0.906-2.807-1.67C258.002,148.382,257.035,147.485,256.223,146.715L256.223,146.715z"/>
<path id="path2608" fill="none" stroke="#1F1A17" stroke-width="0.018" stroke-linecap="round" stroke-linejoin="round" d="
	M130.885,553.288c0.843,3.991,0.573,6.969,0.304,9.945c0.725,4.557,1.451,9.114,5.926,14.897c4.475,5.784,12.7,12.796,21.8,18.12
	c9.101,5.327,19.079,8.967,27.64,12.001c8.562,3.033,15.709,5.46,22.314,6.876c6.606,1.415,12.674,1.82,16.179,1.214
	c3.506-0.607,4.45-2.226,3.103-4.585c-1.35-2.358-4.989-5.461-7.686-8.089c-2.696-2.629-4.45-4.787-5.191-6.202
	c-0.742-1.416-0.472-2.091,1.349-2.428c1.819-0.337,5.19-0.337,9.775-0.337c4.583,0,10.382,0,15.234-0.27
	c4.854-0.27,8.765-0.81,13.079-0.675c4.313,0.136,9.034,0.944,12.674,2.765s6.202,4.651,9.235,7.28
	c3.033,2.63,6.54,5.057,9.91,6.675c3.37,1.617,6.606,2.427,8.291,1.819c1.687-0.606,1.821-2.629,1.215-5.258
	s-1.956-5.865-2.09-8.696c-0.136-2.832,0.943-5.259,2.156-6.472c1.214-1.214,2.562-1.214,4.247,0.337
	c1.686,1.55,3.709,4.652,5.124,7.887c1.415,3.236,2.225,6.607,3.977,10.112c1.753,3.506,4.45,7.146,7.821,11.596
	c3.37,4.449,7.415,9.707,11.056,13.482c3.64,3.775,6.876,6.068,17.055,10.314c10.18,4.247,27.304,10.45,39.842,12.741
	c12.539,2.292,20.495,0.675,28.112-1.888c7.618-2.562,14.898-6.067,20.764-10.313c5.865-4.247,10.314-9.236,12-14.225
	s0.605-9.978,0.337-13.617c-0.271-3.641,0.27-5.934,1.617-6.945c1.349-1.011,3.506-0.74,6.202-0.337
	c2.696,0.405,5.933,0.945,10.869,0.784c4.937-0.16,11.575-1.021,18.213-1.882c-3.575-1.218-7.151-2.436-9.95-3.45
	c-2.8-1.016-4.824-1.828-7.455-4.094c-2.631-2.267-5.869-5.988-8.163-9.676c-2.293-3.687-3.643-7.341-4.554-11.028
	c-0.91-3.687-1.382-7.407-1.585-10.655c-0.203-3.247-0.134-6.021-0.303-8.051s-0.574-3.315-1.147-4.602
	c-0.573-1.284-1.315-2.57-1.519-3.788c-0.202-1.217,0.136-2.368,1.586-3.349c1.45-0.981,4.015-1.793,6.915-3.349
	s6.139-3.857,8.062-6.326c1.922-2.47,2.53-5.108,2.294-7.883c-0.236-2.773-1.316-5.684-2.665-7.882s-2.969-3.688-5.296-5.108
	c-2.327-1.42-5.363-2.773-6.746-3.721c-1.384-0.947-1.113-1.488,0.202-1.793s3.678-0.372,6.072-0.338
	c2.394,0.033,4.823,0.169,7.083,1.049c2.26,0.879,4.352,2.503,6.308,4.127c1.956,1.623,3.778,3.248,5.329,4.161
	c1.552,0.913,2.834,1.116,3.879,0.846c1.046-0.271,1.855-1.016,2.733-1.591c0.876-0.574,1.82-0.98,2.529-0.608
	c0.707,0.372,1.181,1.522,1.384,3.586c0.202,2.062,0.134,5.041-1.08,7.713s-3.576,5.04-5.465,6.8
	c-1.889,1.759-3.306,2.909-4.723,4.059c0.81,0.136,1.62,0.271,3.172,0.136c1.551-0.136,3.845-0.542,7.252-2.199
	c3.406-1.657,7.926-4.567,11.367-9.1c3.438-4.533,5.801-10.689,6.982-15.764c1.18-5.074,1.18-9.067,1.314-11.875
	c0.135-2.807,0.405-4.431,1.147-4.6c0.741-0.169,1.956,1.116,2.799,2.706c0.844,1.59,1.316,3.485,1.788,5.379
	c0.27-2.773,0.54-5.548,1.248-8.829s1.855-7.07,1.855-10.284c0-3.213-1.147-5.853-1.688-8.728c-0.539-2.875-0.472-5.987-0.101-8.491
	c0.371-2.503,1.047-4.397,1.147-5.751c0.102-1.352-0.372-2.165-0.406-3.755c-0.033-1.589,0.372-3.957,1.788-6.8
	c1.417-2.84,3.846-6.157,6.173-11.163c2.328-5.006,4.555-11.704,5.971-18.198c1.417-6.495,2.024-12.788,1.99-18.302
	s-0.709-10.25-1.721-18.031c-1.011-7.78-2.36-18.605-2.732-25.27c-0.37-6.664,0.237-9.168,0.911-11.265
	c0.675-2.097,1.417-3.789,3.474-4.263c2.058-0.474,5.432,0.271,9.311,2.673s8.265,6.462,11.704,10.047
	c3.44,3.585,5.937,6.698,8.433,9.811c-3.643-6.631-7.286-13.262-11.67-18.505c-4.385-5.242-9.513-9.1-11.672-11.332
	c-2.158-2.232-1.348-2.842,0.305-2.672c1.652,0.168,4.148,1.116,6.375,2.537c2.226,1.42,4.182,3.314,6.139,5.209
	c-0.067-0.744-0.136-1.488-1.046-3.045c-0.911-1.555-2.665-3.924-4.587-5.954c-1.923-2.028-4.016-3.721-6.68-4.904
	s-5.902-1.861-9.006-2.639c-3.103-0.777-6.071-1.657-7.791-2.47c-1.72-0.812-2.193-1.556-2.496-3.28
	c-0.304-1.726-0.439-4.433-0.709-6.901s-0.675-4.702-1.079-6.935c-0.404,3.044-0.81,6.089-1.417,8.051
	c-0.606,1.961-1.416,2.842-2.698,2.978c-1.281,0.135-3.036-0.475-5.127-1.794c-2.091-1.318-4.52-3.349-6.712-6.123
	c-2.192-2.773-4.149-6.292-5.667-9.438c-1.518-3.146-2.598-5.92-2.699-7.544c-0.101-1.623,0.777-2.097,2.564-1.759
	c1.787,0.339,4.486,1.489,6.745,3.789c2.26,2.301,4.082,5.752,5.297,8.56c1.213,2.807,1.821,4.973,2.428,7.137
	c0.473-1.352,0.944-2.706,1.181-4.025c0.236-1.318,0.236-2.604-0.135-3.789c-0.371-1.184-1.113-2.267-1.484-3.179
	c-0.371-0.913-0.371-1.658-0.404-2.674c-0.033-1.014-0.102-2.3-0.405-3.585c-0.303-1.285-0.844-2.571-2.125-3.755
	s-3.305-2.267-4.991-2.977c-1.687-0.711-3.037-1.049-3.407-1.692c-0.372-0.643,0.236-1.59,0.709-2.469
	c0.471-0.88,0.81-1.691,4.317-2.74s10.187-2.335,16.09-2.809c5.902-0.473,11.029-0.134,16.156,0.204
	c-3.103-1.083-6.207-2.165-9.143-2.978c-2.934-0.812-5.699-1.353-8.263-1.624c-2.563-0.271-4.925-0.271-6.881-0.338
	s-3.508-0.203-4.52-0.406c-1.013-0.202-1.484-0.474-1.114-3.45c0.372-2.977,1.587-8.66,1.823-14.58
	c0.235-5.92-0.508-12.077-1.722-17.895c-1.214-5.818-2.9-11.299-4.52-15.122c-1.619-3.822-3.171-5.987-3.778-8.965
	c-0.607-2.976-0.27-6.765-1.855-10.959c-1.585-4.194-5.093-8.797-9.31-13.431c-4.216-4.634-9.142-9.304-12.379-12.279
	c-3.237-2.977-4.79-4.264-7.05-9.066c-2.26-4.804-5.228-13.126-9.376-19.587c-4.149-6.461-9.479-11.062-15.213-15.188
	c-5.734-4.126-11.874-7.781-17.878-11.163c-6.003-3.383-11.873-6.496-21.318-9.574c-9.443-3.077-22.464-6.123-31.941-8.593
	c-9.479-2.468-15.415-4.363-20.778-6.664c-5.363-2.299-10.153-5.006-14.066-7.307c-3.912-2.3-6.948-4.195-10.523-5.311
	c-3.575-1.116-7.691-1.454-11.84-1.353s-8.331,0.643-12.008,0.202c-3.677-0.439-6.848-1.86-11.873-2.977s-11.907-1.929-18.586-2.267
	c-6.678-0.338-13.155-0.203-17.54,0.475c-4.385,0.676-6.679,1.894-9.748,2.604c-3.068,0.71-6.915,0.913-11.502,1.522
	s-9.917,1.624-16.562,3.349c-6.644,1.726-14.605,4.162-22.531,7.07c-7.927,2.909-15.82,6.293-22.6,10.251
	c-6.779,3.957-12.447,8.491-17.102,12.686c-4.654,4.193-8.298,8.051-10.963,10.554c-2.664,2.503-4.351,3.653-7.656,6.36
	c-3.306,2.705-8.23,6.969-10.794,10.453c-2.563,3.483-2.767,6.19-3.407,8.49s-1.721,4.195-3.44,6.562s-4.081,5.21-5.903,9.101
	c-1.82,3.889-3.103,8.829-3.508,13.294c-0.404,4.465,0.068,8.458,0.473,11.638c0.404,3.179,0.742,5.548,0.337,7.712
	c-0.404,2.165-1.552,4.128-2.968,6.226c-1.416,2.097-3.104,4.329-4.015,6.934c-0.91,2.604-1.045,5.583-0.877,9.608
	c0.17,4.024,0.642,9.1,2.497,14.85c1.854,5.751,5.093,12.179,7.318,16.575c2.227,4.397,3.441,6.767,4.655,9.134
	c-0.539,1.691-1.079,3.384-2.429,6.09c-1.349,2.706-3.508,6.428-5.33,10.487c-1.82,4.059-3.305,8.456-5.228,11.637
	c-1.922,3.18-4.284,5.142-6.746,7.138c-2.462,1.995-5.026,4.025-7.083,5.886c-2.058,1.86-3.609,3.553-6.982,5.413
	c-3.372,1.86-8.567,3.89-12.042,5.581c-3.474,1.691-5.228,3.045-8.062,4.702c-2.833,1.657-6.746,3.62-9.646,4.736
	s-4.79,1.387-6.713,1.624c-1.922,0.236-3.879,0.439-5.734,1.42c-1.855,0.981-3.609,2.741-6.037,4.398
	c-2.429,1.657-5.533,3.214-8.534,4.127c-3.002,0.913-5.903,1.185-8.804,1.454c3.643,1.082,7.286,2.165,10.287,1.929
	c3.002-0.236,5.364-1.794,7.894-3.214c2.529-1.421,5.229-2.706,7.657-3.553c2.429-0.845,4.588-1.251,6.24-1.184
	c1.652,0.068,2.8,0.609,4.654,0.947c1.854,0.339,4.419,0.474,6.544,0.981c2.124,0.507,3.812,1.387,4.688,2.639
	c0.877,1.251,0.945,2.876,1.586,4.635c0.64,1.759,1.855,3.653,3.036,5.107c1.18,1.454,2.327,2.47,3.001,3.789
	c0.675,1.319,0.878,2.943,0.676,4.229s-0.811,2.232-1.891,2.706c-1.079,0.474-2.631,0.474-4.25-0.169
	c-1.618-0.643-3.305-1.929-4.418-3.653s-1.653-3.891-2.192-6.056c-0.271,2.571-0.54,5.143-0.169,7.409
	c0.371,2.266,1.383,4.229,1.99,5.582c0.606,1.352,0.81,2.097,0.338,2.502c-0.473,0.406-1.62,0.474-3.341-0.102
	c-1.719-0.575-4.013-1.793-6.138-3.247c-2.126-1.454-4.082-3.146-6.038-4.837c0.876,2.231,1.754,4.465,3.474,6.562
	c1.72,2.098,4.284,4.061,6.949,5.515c2.664,1.454,5.431,2.401,7.387,3.586c1.956,1.184,3.104,2.604,3.744,4.229
	c0.641,1.623,0.776,3.451,0.607,6.259c-0.169,2.807-0.642,6.597-0.811,10.148c-0.169,3.551-0.032,6.867,0.608,10.452
	c0.641,3.586,1.787,7.443,1.923,11.062c0.135,3.619-0.743,7.003-1.924,9.675s-2.664,4.635-4.317,6.359
	c-1.652,1.726-3.475,3.214-5.532,4.061c-2.057,0.845-4.351,1.048-6.61,0.777s-4.486-1.015-6.207-3.214
	c-1.72-2.198-2.934-5.853-2.899-9.032c0.033-3.18,1.314-5.887,2.597-8.593c-0.944,0.542-1.89,1.083-3.104,1.658
	c-1.215,0.574-2.698,1.185-4.048,3.383c-1.349,2.197-2.563,5.987-2.463,10.013c0.102,4.025,1.519,8.289,4.824,11.265
	c3.305,2.977,8.5,4.669,13.189,5.549c4.688,0.879,8.87,0.946,12.885,0.066c4.013-0.879,7.859-2.706,10.929-4.296
	c3.068-1.59,5.363-2.942,7.05-3.383c1.686-0.439,2.766,0.034,4.014,1.016c1.247,0.98,2.665,2.47,4.452,4.635
	c1.787,2.164,3.946,5.007,5.565,7.408c1.619,2.4,2.699,4.364,3.104,5.886c0.404,1.522,0.134,2.604-0.743,3.653
	s-2.361,2.063-3.778,3.35c-1.416,1.284-2.766,2.842-3.575,4.025c-0.809,1.184-1.079,1.995-0.944,3.044s0.675,2.334,0.54,3.146
	c-0.135,0.812-0.945,1.149-2.294,1.252c-1.349,0.101-3.238-0.035-6.207-0.981c-2.968-0.947-7.016-2.707-9.781-4.871
	c-2.767-2.165-4.25-4.736-4.857-7.037c-0.607-2.3-0.337-4.329,0.067-6.799s0.945-5.38,1.484-8.288
	c-1.552,1.15-3.104,2.3-4.925,4.025c-1.821,1.725-3.913,4.026-4.992,6.8c-1.078,2.773-1.147,6.021-0.675,9.742
	s1.484,7.917,3.88,11.84c2.394,3.924,6.173,7.578,10.321,10.589c4.148,3.01,8.668,5.379,13.188,7.746
	c-4.925-0.067-9.85-0.135-14.032-0.879s-7.623-2.165-10.49-4.161s-5.16-4.567-7.454-7.138c0.742,3.111,1.483,6.225,2.9,9.032
	c1.416,2.807,3.509,5.311,4.689,7.341c1.18,2.029,1.45,3.586,1.889,5.277c0.438,1.69,1.046,3.518,2.058,5.311
	s2.429,3.552,4.082,4.669c1.652,1.116,3.541,1.59,7.589,1.86c4.047,0.271,10.254,0.338,14.571,0.406
	c4.316,0.067,6.746,0.135,9.175,0.202c-1.349,1.759-2.698,3.519-3.846,6.394c-1.146,2.875-2.091,6.867-3.542,10.859
	c-1.449,3.991-3.406,7.984-5.363,11.976c2.294-0.068,4.588-0.136,7.591-0.982c3.002-0.845,6.711-2.469,10.456-4.228
	c3.743-1.759,7.521-3.654,10.052-6.191c2.529-2.536,3.812-5.717,5.094-8.896c1.078,2.639,2.158,5.278,3.677,9.101
	C128.086,544.289,130.042,549.296,130.885,553.288L130.885,553.288z"/>
<path id="path2610" fill="none" stroke="#1F1A17" stroke-width="0.018" stroke-linecap="round" stroke-linejoin="round" d="
	M324.973,492.669c-2.125,1.354-2.53,3.384-3.947,5.413c-1.416,2.03-3.845,4.06-6.004,4.533c-2.158,0.475-4.049-0.608-5.768-0.271
	c-2.647,0.521-6.625,3.616-9.682,4.702c-3.89,1.382-6.914,3.932-11.163,4.567c-4.073,0.608-8.535,0.232-12.683,0.474
	c-7.887,0.454-15.3-1.685-23.309-0.914c-8.393,0.81-16.25-5.324-22.23-10.353c-4.167-3.504-7.005-4.915-7.892-10.452
	c-0.303-1.894-0.371-3.991-1.012-5.853c-0.641-1.859-1.855-3.483-3.171-4.229c-1.314-0.744-2.731-0.608-4.047,0.608
	c-1.315,1.219-2.53,3.52-3.711,5.887c-1.181,2.368-2.328,4.804-3.373,6.191c-1.045,1.386-1.99,1.726-2.9,1.692
	c-0.911-0.035-1.788-0.441-3.205-2.064c-1.416-1.623-3.373-4.466-3.812-7.273c-0.438-2.808,0.643-5.582,1.282-7.746
	c0.642-2.165,0.844-3.723,0.912-5.143c0.067-1.421-0.001-2.706-0.507-3.653c-0.505-0.947-1.45-1.557-2.327-2.773
	c-0.877-1.219-1.688-3.046-1.484-4.905c0.203-1.86,1.417-3.756,2.057-5.582c0.642-1.827,0.71-3.586-0.234-5.243
	c-0.945-1.657-2.901-3.215-5.769-5.311c-2.867-2.099-6.645-4.737-10.389-8.593c-3.744-3.856-7.455-8.932-10.085-13.294
	c-2.632-4.364-4.184-8.019-5.837-14.581c-1.652-6.562-3.406-16.035-5.599-23.342s-4.824-12.448-7.05-19.146
	s-4.048-14.952-4.756-22.395s-0.304-14.073,0.641-21.38s2.429-15.29,3.542-24.694c1.112-9.404,4.588-32.263,4.959-41.803
	c0.371-9.539-10.921-0.483-10.517-6.876s9.773-16.204,11.595-20.061s4.655-7.037,10.052-11.062
	c5.396-4.025,13.357-8.897,20.812-12.28c7.455-3.383,14.404-5.276,23.006-7.104c8.601-1.826,18.854-3.586,29.614-4.567
	c10.76-0.98,22.027-1.184,35.451-0.608c13.425,0.575,29.009,1.929,40.611,3.349c11.604,1.421,19.228,2.91,28.334,5.48
	c9.107,2.57,19.699,6.225,27.963,9.337c8.264,3.111,14.201,5.684,18.215,8.22c4.014,2.537,6.105,5.041,8.365,9.065
	c2.26,4.026,4.688,9.575,6.679,14.514c1.989,4.938,3.542,9.269,4.823,12.955c1.281,3.688,2.293,6.732,2.058,9.101
	c-0.236,2.368-1.72,4.06-2.9,5.04c-1.181,0.981-2.059,1.252-3.44,0.609c-1.384-0.643-3.272-2.199-5.667-4.262
	c-2.396-2.064-5.296-4.636-7.59-6.732s-3.98-3.722-5.633-4.702c-1.652-0.981-3.272-1.319-5.094-2.232
	c-1.821-0.914-3.846-2.402-5.835-3.856c-1.99-1.454-3.947-2.876-5.667-3.417c-1.721-0.541-3.204-0.202-4.856,0.439
	c-1.653,0.643-3.476,1.591-5.297,2.233c-1.82,0.643-3.643,0.98-5.126,1.42c-1.484,0.44-2.632,0.981-4.486,1.252
	c-1.855,0.271-4.42,0.271-6.173,0.339c-1.754,0.067-2.699,0.202-3.745,0.507c-1.045,0.305-2.192,0.778-3.845,1.082
	c-1.652,0.305-3.812,0.44-7.049,0.711c-3.238,0.271-7.558,0.677-11.941,1.15c-4.385,0.473-8.838,1.016-12.582,1.86
	c-3.743,0.846-6.779,1.996-8.836,3.586c-2.058,1.589-3.138,3.62-3.677,6.325c-0.54,2.706-0.54,6.09-1.248,8.965
	c-0.709,2.876-2.126,5.243-3.137,7.442c-1.012,2.198-1.62,4.229-0.946,6.326c0.676,2.097,2.632,4.263,3.441,7.036
	s0.471,6.157-0.236,9.167c-0.708,3.011-1.788,5.65-1.822,8.66c-0.033,3.011,0.979,6.395,1.89,7.849s1.721,0.98,2.8-0.677
	s2.429-4.5,3.979-6.461c1.552-1.962,3.307-3.045,5.229-5.007c1.923-1.961,4.015-4.804,4.621-6.935
	c0.607-2.131-0.27-3.552-1.247-4.635c-0.979-1.082-2.059-1.827-2.092-2.875c-0.033-1.049,0.979-2.402,1.956-3.383
	c0.979-0.981,1.923-1.59,2.9-1.557c0.979,0.034,1.99,0.711,3.339,0.981c1.35,0.271,3.037,0.135,4.588-0.236
	c1.552-0.373,2.969-0.981,4.25-1.861c1.282-0.879,2.43-2.029,3.171-2.977c0.742-0.947,1.08-1.692,1.417-2.436
	c0.443,1.414,0.887,2.829,1.439,4.198c0.554,1.37,1.218,2.696,2.283,3.757c1.065,1.06,2.533,1.855,4.218,2.413
	c1.685,0.559,3.588,0.88,5.404,1.04c1.815,0.16,3.546,0.16,5.017-0.244c1.473-0.406,2.687-1.219,3.872-2.106
	c1.187-0.888,2.346-1.853,3.121-3.104c0.775-1.251,1.17-2.791,1.562-4.33c0.607,0.474,1.215,0.947,1.923,1.929
	s1.519,2.47,1.923,3.721c0.405,1.252,0.405,2.268-0.101,3.281c-0.506,1.015-1.519,2.03-2.87,2.79
	c-1.353,0.762-3.046,1.27-4.879,1.54c-1.832,0.271-3.805,0.306-5.893,0.085c-2.089-0.22-4.293-0.693-5.934-0.862
	c-1.642-0.169-2.722-0.034-2.958,0.305c-0.236,0.338,0.372,0.879,1.215,1.454s1.923,1.185,3.744,1.86
	c1.82,0.677,4.385,1.421,6.779,1.624c2.396,0.203,4.621-0.136,6.712-0.812c2.092-0.677,4.049-1.691,5.836-2.233
	c1.788-0.541,3.407-0.608,5.127,0.135c1.721,0.744,3.542,2.302,5.296,3.688s3.44,2.604,6.038,3.044
	c2.597,0.439,6.104,0.102,8.735,0.203c2.632,0.102,4.386,0.643,6.443,1.657c2.057,1.015,4.419,2.504,7.083,3.653
	c2.665,1.15,5.633,1.963,6.881,1.963c1.249,0,0.776-0.812,0.034-1.962c-0.742-1.15-1.754-2.64-2.327-3.722
	c-0.573-1.083-0.709-1.759-0.337-2.029c0.37-0.271,1.248-0.136,2.563,0.676c1.315,0.812,3.069,2.301,3.945,3.991
	c0.878,1.692,0.878,3.588,1.147,5.346c0.271,1.759,0.81,3.384,0.372,5.515c-0.438,2.131-1.856,4.771-2.801,7.138
	s-1.417,4.466-2.631,7.002c-1.215,2.536-3.171,5.515-5.127,8.22c-1.956,2.706-3.913,5.143-6.442,7.342
	c-2.53,2.198-5.633,4.16-8.163,6.731c-2.529,2.571-4.486,5.752-4.452,9.642c0.033,3.89,2.058,8.49,3.608,12.583
	c1.552,4.093,2.632,7.68,4.115,10.589c1.484,2.909,3.374,5.143,4.183,7.442c0.81,2.3,0.54,4.669-0.944,6.563
	c-1.483,1.894-4.183,3.314-6.846,3.314c-2.665,0-5.298-1.421-7.287-2.47c-1.989-1.048-3.34-1.725-5.128-1.421
	c-1.787,0.305-4.013,1.591-5.328,3.315c-1.315,1.726-1.721,3.892-2.665,5.007c-0.944,1.116-2.429,1.184-3.946,0.305
	c-1.519-0.88-3.07-2.707-4.857-4.533c-1.788-1.826-3.812-3.654-6.037-4.635c-2.227-0.98-4.656-1.116-7.657-1.86
	c-3.002-0.744-6.578-2.098-10.996-3.586c-4.419-1.488-9.682-3.113-13.392-5.04c-3.71-1.928-5.869-4.161-7.993-5.853
	c-2.125-1.691-4.218-2.842-6.173-3.586c-1.956-0.744-3.779-1.082-5.195-0.644c-1.416,0.44-2.429,1.658-3.608,3.281
	c-1.181,1.624-2.53,3.655-3.069,6.123c-0.54,2.47-0.271,5.38,0.943,7.477c1.214,2.098,3.374,3.383,5.971,4.533
	s5.634,2.166,7.959,3.146c2.328,0.98,3.948,1.929,5.6,2.909c1.653,0.98,3.34,1.996,3.543,2.47c0.202,0.473-1.08,0.405-3.036,0.169
	c-1.956-0.237-4.588-0.643-7.488-1.218s-6.071-1.319-8.634-1.59c-2.564-0.271-4.521-0.068-6.039,0.304s-2.598,0.914-3.677,1.455
	c-1.078,0.541-2.159,1.082-3.339,1.184c-1.181,0.102-2.463-0.236-4.081-0.846c-1.619-0.608-3.576-1.488-5.734-1.252
	c-2.159,0.237-4.521,1.591-6.882,3.18c-2.36,1.591-4.722,3.418-7.15,5.075s-4.925,3.146-8.265,4.972
	c-3.339,1.827-7.521,3.993-10.591,5.549s-5.026,2.503-5.431,3.484c-0.405,0.981,0.742,1.996,2.495,2.503
	c1.754,0.508,4.116,0.508,6.949-0.202c2.833-0.711,6.14-2.132,9.849-3.315c3.711-1.185,7.827-2.132,12.616-2.538
	c4.789-0.405,10.255-0.271,14.167-0.169s6.274,0.169,9.106-0.304c2.834-0.474,6.14-1.489,9.344-1.793
	c3.204-0.305,6.308,0.102,8.871,0.88c2.563,0.777,4.588,1.928,7.15,2.469c2.564,0.541,5.668,0.474,8.67,0.609
	c3.001,0.135,5.902,0.474,8.027,0.102s3.475-1.455,4.824-2.098c1.349-0.643,2.698-0.846,3.811-0.204
	c1.113,0.644,1.99,2.132,3.002,4.466s2.159,5.516,2.193,7.646s-1.047,3.213-2.8,3.788c-1.754,0.575-4.183,0.643-7.218-0.236
	c-3.036-0.88-6.68-2.706-9.378-3.958s-4.452-1.929-7.319-1.692c-2.867,0.237-6.848,1.388-11.401,2.368
	c-4.553,0.981-9.681,1.794-15.179,2.672c-5.498,0.88-11.367,1.828-15.785,2.335c-4.419,0.508-7.388,0.575-10.896,0.643
	c-3.507,0.067-13.68-2.57-16.275-1.726c-2.597,0.846-0.333,2.465,0.24,4.122c0.574,1.657,5.579,6.062,8.21,7.752
	c2.63,1.69,5.6,3.383,7.96,4.06c2.361,0.677,4.115,0.339,6.173,0c2.058-0.338,4.419-0.677,7.188-0.643
	c2.77,0.035,5.948,0.444,8.781,0.681c2.834,0.236,5.322,0.303,8.32,0.302s6.506-0.069,9.373,0.473
	c2.867,0.541,5.094,1.691,7.218,2.672c2.125,0.98,4.149,1.794,6.511,1.692c2.36-0.102,5.06-1.117,7.488-1.692
	c2.429-0.574,4.587-0.71,7.05-1.149c2.462-0.44,5.228-1.185,6.981-1.32c1.755-0.135,2.497,0.339,2.901,1.726s0.473,3.688,0.135,6.19
	c-0.337,2.503-1.079,5.21-2.766,8.321c-1.687,3.112-4.318,6.631-7.555,8.729C330.944,490.639,327.097,491.316,324.973,492.669
	L324.973,492.669z"/>
<path id="path2612" fill="none" stroke="#1F1A17" stroke-width="0.018" stroke-linecap="round" stroke-linejoin="round" d="
	M499.26,471.288c1.619-1.759,3.576-3.519,5.195-4.499c1.618-0.98,2.9-1.184,3.575-0.812c0.674,0.372,0.742,1.32,0.843,3.281
	c0.101,1.962,0.236,4.939,0.371,8.254c0.135,3.315,0.271,6.97-0.101,9.101s-1.249,2.739-2.059,2.165s-1.552-2.335-2.091-3.992
	s-0.878-3.213-1.282-4.499s-0.876-2.301-1.551-2.774s-1.553-0.405-2.666-0.033c-1.112,0.372-2.462,1.049-3.237,0.946
	c-0.776-0.101-0.979-0.98-0.438-2.3C496.359,474.805,497.641,473.046,499.26,471.288L499.26,471.288z"/>
<path id="path2614" fill="none" stroke="#1F1A17" stroke-width="0.018" stroke-linecap="round" stroke-linejoin="round" d="
	M240.948,297.344c1.197,0.71,2.48,1.218,2.952,1.116c0.473-0.102,0.134-0.812,0.083-1.691c-0.05-0.88,0.188-1.929,0.827-2.571
	c0.642-0.643,1.688-0.88,2.8-1.234c1.112-0.355,2.294-0.829,3.728-1.624c1.433-0.795,3.12-1.911,4.3-3.061
	c1.181-1.15,1.856-2.336,2.024-3.52c0.169-1.184-0.169-2.368-0.657-4.414c-0.489-2.047-1.131-4.957-2.091-7.206
	c-0.962-2.249-2.244-3.839-3.154-4.803c-0.911-0.965-1.45-1.303-2.479-2.132c-1.029-0.828-2.548-2.148-3.998-2.994
	c-1.45-0.845-2.833-1.218-4.334-0.947s-3.121,1.185-4.554,1.624c-1.434,0.44-2.683,0.406-3.761,0.119
	c-1.08-0.288-1.991-0.829-3.222-1.218s-2.783-0.627-4.368-0.238c-1.585,0.39-3.205,1.404-4.571,1.946
	c-1.366,0.541-2.479,0.609-3.355,0.39c-0.877-0.221-1.519-0.729-2.176-1.218c-0.657-0.491-1.332-0.965-2.58-0.812
	c-1.247,0.151-3.069,0.931-5.211,1.336s-4.604,0.44-6.577,0.237c-1.974-0.203-3.458-0.644-5.465-1.15
	c-2.007-0.508-4.538-1.083-6.763-1.37c-2.227-0.287-4.15-0.287-6.309-0.136c-2.158,0.152-4.554,0.457-6.628,1.86
	s-3.828,3.908-5.649,5.751c-1.821,1.844-3.711,3.028-5.127,4.686c-1.417,1.658-2.361,3.789-2.429,5.699
	c-0.067,1.912,0.742,3.604,1.99,5.159c1.248,1.557,2.935,2.978,4.873,3.653c1.94,0.677,4.133,0.609,5.971,0.034
	c1.839-0.574,3.323-1.658,4.065-2.604c0.742-0.947,0.742-1.759,0.927-2.452c0.187-0.693,0.557-1.269,1.299-1.438
	c0.742-0.17,1.855,0.067,3.475-0.102s3.744-0.745,5.717-1.15c1.974-0.406,3.796-0.644,5.194-0.745
	c1.4-0.102,2.379-0.066,2.362,0.491c-0.018,0.558-1.029,1.641-2.58,3.027c-1.552,1.387-3.645,3.079-5.702,4.414
	c-2.057,1.337-4.081,2.318-6.762,3.891c-2.683,1.573-6.021,3.738-9.344,6.309c-3.322,2.571-6.628,5.549-7.522,8.424
	c-0.894,2.875,0.625,5.65,2.446,7.442c1.82,1.793,3.946,2.605,5.801,2.571s3.441-0.913,5.026-1.996
	c1.585-1.082,3.171-2.368,5.565-2.317c2.395,0.05,5.6,1.438,8.433,1.995c2.833,0.559,5.297,0.288,6.797-0.169
	c1.501-0.456,2.041-1.099,1.872-1.556s-1.046-0.728-2.074-0.862c-1.029-0.136-2.21-0.136-3.39-0.271
	c-1.181-0.136-2.362-0.406-3.29-0.609c-0.927-0.203-1.602-0.338-1.854-0.643s-0.084-0.778,0.186-1.235
	c0.271-0.456,0.641-0.896,0.978-1.64c0.338-0.744,0.643-1.794,0.911-2.622c0.271-0.829,0.507-1.438,1.08-2.062
	c0.572-0.627,1.483-1.27,2.276-1.861s1.468-1.134,1.956-1.455c0.489-0.32,0.794-0.424,1.097-0.203
	c0.304,0.22,0.606,0.761,1.079,1.488s1.113,1.642,2.176,2.538c1.062,0.896,2.546,1.776,4.047,2.147
	c1.501,0.372,3.021,0.236,4.808-0.084c1.788-0.321,3.845-0.829,5.211-1.675c1.365-0.846,2.041-2.03,2.749-3.552
	c0.708-1.522,1.45-3.384,1.938-4.871c0.489-1.488,0.727-2.605,1.132-3.214c0.403-0.608,0.978-0.711,2.002-0.652
	c1.025,0.06,2.504,0.28,4.14,0.61c1.637,0.33,3.433,0.771,4.835,1.27c1.403,0.499,2.415,1.057,3.477,1.792
	C238.638,295.719,239.751,296.633,240.948,297.344L240.948,297.344z"/>
<path id="path2616" fill="none" stroke="#1F1A17" stroke-width="0.018" stroke-linecap="round" stroke-linejoin="round" d="
	M302,332.152c-0.202,1.251,0.001,2.401,0.574,3.619s1.518,2.504,2.395,3.653c0.877,1.15,1.687,2.166,2.766,2.842
	c1.079,0.677,2.43,1.015,3.44,1.421c1.013,0.405,1.688,0.879,2.125,1.387c0.438,0.508,0.642,1.049,0.978,1.354
	c0.338,0.305,0.81,0.372,1.046,0s0.236-1.185-0.033-2.401c-0.27-1.218-0.81-2.843-1.585-4.5c-0.776-1.657-1.788-3.349-2.935-4.871
	c-1.147-1.521-2.429-2.876-3.07-4.093c-0.641-1.218-0.641-2.301-1.247-2.672c-0.607-0.373-1.821-0.035-2.732,0.811
	C302.811,329.547,302.202,330.901,302,332.152L302,332.152z"/>
<path id="path2618" fill="none" stroke="#1F1A17" stroke-width="0.018" stroke-linecap="round" stroke-linejoin="round" d="
	M362.952,374.199c-0.844,1.624-1.451,3.79-2.159,5.075s-1.519,1.691-1.755,2.639s0.103,2.436,0.844,4.093
	c0.742,1.657,1.89,3.485,1.822,5.379c-0.067,1.895-1.351,3.857-2.092,5.379s-0.944,2.605-0.438,3.146s1.72,0.541,3.271,0.034
	c1.552-0.508,3.442-1.523,5.331-2.876c1.889-1.354,3.777-3.045,5.396-5.615c1.618-2.571,2.969-6.022,3.609-9.101
	c0.642-3.077,0.573-5.785-0.135-7.813c-0.708-2.029-2.059-3.384-3.947-3.958c-1.889-0.576-4.317-0.372-6.07,0.271
	C364.875,371.493,363.794,372.576,362.952,374.199L362.952,374.199z"/>
<path id="path2620" fill="none" stroke="#1F1A17" stroke-width="0.018" stroke-linecap="round" stroke-linejoin="round" d="
	M327.467,368.587c0.371-1.623,0.303-2.841-0.642-4.498s-2.767-3.756-4.689-5.548c-1.922-1.793-3.946-3.281-5.835-3.925
	c-1.889-0.643-3.643-0.439-6.038-0.338c-2.395,0.102-5.43,0.102-8.668,0.271c-3.238,0.168-6.679,0.507-9.073,1.183
	c-2.395,0.677-3.745,1.692-5.263,2.437s-3.204,1.218-5.431,1.421s-4.992,0.136-7.589,0.033c-2.598-0.101-5.026-0.236-7.286-0.812
	s-4.352-1.59-6.712-1.827c-2.36-0.236-4.993,0.305-7.421,0.948c-2.429,0.643-4.655,1.387-6.274,2.334
	c-1.619,0.946-2.631,2.097-3.305,3.586c-0.675,1.487-1.013,3.314-1.148,5.04c-0.134,1.725-0.066,3.35,0.541,4.838
	c0.606,1.487,1.754,2.841,2.9,3.889c1.146,1.049,2.295,1.794,3.407,2.166c1.112,0.371,2.193,0.371,2.43-0.508
	c0.235-0.879-0.373-2.64-0.777-4.364s-0.607-3.416-0.438-4.702c0.169-1.284,0.708-2.164,1.519-2.231
	c0.809-0.067,1.889,0.677,3.373,1.251c1.483,0.574,3.373,0.981,5.059,1.117c1.687,0.135,3.172-0.001,4.15-0.745
	c0.978-0.744,1.449-2.098,2.293-2.909c0.843-0.812,2.058-1.082,2.968-0.541s1.519,1.895,2.53,3.146
	c1.012,1.252,2.429,2.402,4.082,2.978c1.651,0.575,3.541,0.575,5.262,0.135c1.72-0.439,3.271-1.319,4.114-2.402
	c0.844-1.081,0.979-2.367,1.519-3.281c0.539-0.913,1.484-1.454,2.731-1.353c1.248,0.102,2.801,0.846,4.486,1.319
	c1.687,0.474,3.509,0.677,4.925,0.677c1.417,0,2.429-0.203,3.812-0.271c1.383-0.068,3.137,0,3.98,0.439
	c0.844,0.44,0.775,1.252,0.201,2.132c-0.572,0.879-1.652,1.826-1.618,2.808c0.033,0.98,1.181,1.995,3.508,2.401
	c2.328,0.406,5.835,0.203,8.771,0c2.934-0.203,5.296-0.406,6.881-1.521C326.285,372.242,327.096,370.211,327.467,368.587
	L327.467,368.587z"/>
<path id="path2622" fill="none" stroke="#1F1A17" stroke-width="0.018" stroke-linecap="round" stroke-linejoin="round" d="
	M301.644,377.603c0.136-0.829,0.034-1.776-0.404-2.655c-0.438-0.88-1.215-1.691-2.21-2.233c-0.994-0.541-2.209-0.812-3.271-0.963
	c-1.062-0.153-1.973-0.188-2.58,0.05c-0.607,0.236-0.911,0.744-1.147,1.353c-0.235,0.609-0.404,1.321,0.151,2.217
	c0.557,0.896,1.84,1.979,3.121,2.858c1.281,0.88,2.563,1.556,3.474,1.792c0.911,0.237,1.451,0.034,1.906-0.422
	C301.139,379.143,301.509,378.432,301.644,377.603L301.644,377.603z"/>
<path id="path2624" fill="none" stroke="#1F1A17" stroke-width="0.018" stroke-linecap="round" stroke-linejoin="round" d="
	M265.3,403.665c0.472-2.469,0.675-5.177,0.81-7.408c0.135-2.233,0.203-3.992,0.034-5.345c-0.169-1.354-0.574-2.301-1.214-2.842
	c-0.642-0.541-1.519-0.677-2.598,0.101c-1.079,0.778-2.362,2.471-3.643,3.654c-1.282,1.184-2.564,1.86-3.475,3.28
	c-0.91,1.421-1.451,3.587-1.585,5.075c-0.136,1.488,0.135,2.3,0.403,3.518c0.271,1.218,0.54,2.843,0.642,4.094
	s0.033,2.132,0.472,2.909c0.438,0.778,1.384,1.455,2.125,1.793c0.742,0.338,1.283,0.338,2.261-0.033
	c0.978-0.373,2.395-1.117,3.474-2.605C264.086,408.367,264.827,406.134,265.3,403.665L265.3,403.665z"/>
<path id="path2626" fill="none" stroke="#1F1A17" stroke-width="0.018" stroke-linecap="round" stroke-linejoin="round" d="
	M249.18,411.749c1.214-1.015,2.024-1.895,2.058-2.638c0.033-0.744-0.708-1.354-2.192-1.557s-3.711,0-5.902,0.473
	c-2.192,0.475-4.353,1.219-6.848,2.166s-5.33,2.098-7.893,3.112c-2.564,1.015-4.857,1.895-6.949,3.281
	c-2.091,1.387-3.98,3.282-5.835,4.973c-1.854,1.691-3.678,3.18-5.127,4.905c-1.45,1.725-2.531,3.688-2.867,5.818
	c-0.338,2.131,0.067,4.432-0.067,6.799c-0.135,2.368-0.811,4.805-0.608,6.022s1.283,1.218,1.855,2.097
	c0.573,0.88,0.642,2.64,0.473,4.398c-0.169,1.758-0.574,3.519,0.101,5.006c0.675,1.488,2.429,2.707,3.777,4.025
	c1.351,1.32,2.295,2.74,3.51,3.079c1.214,0.338,2.698-0.406,3.71-1.387c1.012-0.981,1.552-2.199,1.989-4.466
	c0.439-2.266,0.777-5.582,1.147-8.592c0.371-3.011,0.776-5.718,1.383-7.409c0.607-1.691,1.418-2.368,1.822-3.653
	s0.404-3.181,0.91-4.973c0.506-1.793,1.518-3.484,3.17-4.363c1.653-0.88,3.947-0.948,6.038-1.285
	c2.091-0.339,3.981-0.948,4.79-1.692c0.81-0.744,0.54-1.624,0.438-2.739c-0.102-1.117-0.033-2.471,0.438-3.857
	s1.351-2.808,2.598-4.093C246.347,413.914,247.966,412.764,249.18,411.749L249.18,411.749z"/>
<path id="path2628" fill="#1F1A17" stroke="#1F1A17" stroke-width="0.0176" stroke-linecap="round" stroke-linejoin="round" d="
	M167.55,217.746c5.397-4.025,13.358-8.897,20.812-12.279c7.454-3.383,14.403-5.277,23.005-7.104
	c8.601-1.827,18.855-3.587,29.614-4.568c10.76-0.98,22.027-1.184,35.451-0.608c13.425,0.575,29.009,1.929,40.611,3.349
	c11.604,1.421,19.228,2.91,28.334,5.48c9.107,2.57,19.699,6.226,27.963,9.337s14.201,5.684,18.215,8.22
	c4.014,2.537,6.105,5.041,8.365,9.065c2.26,4.026,4.688,9.575,6.679,14.514c1.989,4.938,3.542,9.269,4.823,12.955
	c1.282,3.688,2.294,6.733,2.058,9.101c-0.236,2.368-1.72,4.06-2.9,5.04c-1.181,0.981-2.059,1.253-3.44,0.609
	c-1.384-0.643-3.272-2.199-5.667-4.262c-2.395-2.063-5.296-4.636-7.59-6.732c-2.293-2.097-3.98-3.722-5.633-4.702
	s-3.272-1.319-5.094-2.232c-1.82-0.913-3.846-2.402-5.835-3.856c-1.99-1.454-3.947-2.876-5.667-3.416
	c-1.721-0.542-3.204-0.203-4.856,0.438c-1.653,0.643-3.476,1.591-5.297,2.233c-1.82,0.643-3.643,0.98-5.126,1.42
	c-1.484,0.44-2.632,0.981-4.486,1.252c-1.855,0.271-4.42,0.271-6.173,0.339c-1.754,0.067-2.699,0.203-3.745,0.507
	c-1.045,0.305-2.192,0.778-3.845,1.082c-1.652,0.306-3.812,0.44-7.049,0.711c-3.238,0.271-7.557,0.677-11.941,1.15
	s-8.838,1.016-12.582,1.86c-3.743,0.846-6.779,1.996-8.836,3.586c-2.058,1.589-3.138,3.62-3.677,6.326
	c-0.54,2.705-0.54,6.089-1.248,8.964c-0.709,2.876-2.125,5.244-3.137,7.442s-1.62,4.229-0.946,6.326
	c0.676,2.097,2.632,4.263,3.441,7.036s0.472,6.157-0.236,9.167c-0.708,3.011-1.788,5.65-1.821,8.66
	c-0.034,3.011,0.978,6.395,1.889,7.849s1.721,0.98,2.8-0.677s2.429-4.5,3.979-6.461c1.552-1.962,3.307-3.045,5.229-5.007
	c1.923-1.961,4.015-4.804,4.621-6.935c0.607-2.131-0.27-3.552-1.247-4.635c-0.978-1.082-2.058-1.827-2.092-2.875
	c-0.033-1.048,0.979-2.402,1.956-3.383c0.979-0.981,1.923-1.59,2.9-1.557c0.979,0.034,1.99,0.711,3.339,0.981
	c1.351,0.271,3.037,0.136,4.588-0.236c1.552-0.373,2.97-0.981,4.251-1.861c1.281-0.879,2.429-2.029,3.17-2.977
	c0.742-0.947,1.08-1.692,1.417-2.436c0.443,1.414,0.887,2.829,1.439,4.198c0.554,1.37,1.218,2.696,2.284,3.757
	c1.064,1.06,2.533,1.855,4.217,2.413c1.685,0.559,3.588,0.88,5.404,1.04c1.815,0.16,3.546,0.16,5.018-0.244
	c1.472-0.406,2.686-1.219,3.872-2.106c1.186-0.888,2.345-1.853,3.12-3.104c0.775-1.252,1.17-2.792,1.562-4.331
	c0.607,0.474,1.215,0.947,1.923,1.929s1.519,2.47,1.923,3.721c0.405,1.252,0.405,2.268-0.101,3.281
	c-0.506,1.015-1.519,2.03-2.87,2.791c-1.353,0.761-3.046,1.269-4.879,1.539c-1.832,0.271-3.805,0.306-5.893,0.085
	c-2.089-0.22-4.292-0.693-5.934-0.862s-2.722-0.034-2.958,0.305c-0.236,0.338,0.372,0.879,1.215,1.454s1.923,1.185,3.744,1.86
	c1.821,0.677,4.386,1.421,6.779,1.625c2.396,0.202,4.621-0.137,6.712-0.812c2.092-0.677,4.049-1.691,5.837-2.232
	c1.787-0.542,3.406-0.609,5.126,0.134c1.721,0.744,3.542,2.302,5.296,3.688s3.44,2.604,6.038,3.044s6.105,0.102,8.736,0.203
	s4.385,0.644,6.442,1.657c2.058,1.015,4.419,2.504,7.083,3.654c2.665,1.149,5.633,1.962,6.881,1.962
	c1.249,0,0.776-0.812,0.034-1.962c-0.742-1.15-1.754-2.64-2.327-3.721c-0.573-1.083-0.709-1.76-0.337-2.03
	c0.37-0.271,1.248-0.136,2.563,0.676c1.315,0.812,3.069,2.301,3.945,3.992c0.878,1.691,0.878,3.587,1.147,5.345
	c0.271,1.76,0.81,3.384,0.372,5.515c-0.438,2.131-1.856,4.771-2.801,7.138c-0.943,2.367-1.416,4.466-2.631,7.002
	c-1.215,2.537-3.17,5.515-5.127,8.221c-1.956,2.705-3.913,5.142-6.442,7.341c-2.53,2.198-5.633,4.16-8.163,6.731
	c-2.529,2.571-4.486,5.752-4.452,9.642c0.033,3.89,2.058,8.49,3.608,12.583c1.552,4.094,2.632,7.68,4.115,10.589
	c1.484,2.909,3.374,5.143,4.183,7.442c0.81,2.301,0.54,4.669-0.944,6.563c-1.483,1.894-4.183,3.315-6.846,3.315
	c-2.665,0-5.298-1.422-7.287-2.471c-1.989-1.048-3.34-1.725-5.127-1.421c-1.788,0.306-4.014,1.591-5.329,3.315
	c-1.315,1.726-1.721,3.892-2.665,5.008c-0.944,1.115-2.429,1.183-3.946,0.304c-1.519-0.88-3.07-2.706-4.857-4.533
	c-1.788-1.826-3.812-3.654-6.037-4.635c-2.227-0.98-4.655-1.116-7.657-1.86s-6.578-2.098-10.996-3.586
	c-4.419-1.488-9.681-3.112-13.392-5.04c-3.71-1.928-5.869-4.161-7.993-5.853c-2.125-1.691-4.217-2.842-6.173-3.586
	s-3.778-1.082-5.195-0.643c-1.416,0.439-2.428,1.657-3.608,3.28c-1.181,1.624-2.53,3.655-3.069,6.123
	c-0.54,2.47-0.271,5.38,0.943,7.477c1.215,2.098,3.374,3.383,5.971,4.534c2.597,1.15,5.634,2.165,7.96,3.146
	c2.327,0.98,3.947,1.929,5.6,2.909s3.34,1.996,3.542,2.47s-1.08,0.405-3.036,0.169c-1.956-0.237-4.588-0.643-7.488-1.218
	s-6.071-1.319-8.634-1.59c-2.563-0.271-4.521-0.068-6.039,0.304c-1.518,0.373-2.598,0.914-3.677,1.455
	c-1.078,0.541-2.159,1.082-3.339,1.184c-1.181,0.102-2.463-0.236-4.081-0.846c-1.619-0.608-3.576-1.488-5.734-1.252
	c-2.158,0.237-4.521,1.591-6.882,3.18c-2.36,1.591-4.722,3.418-7.15,5.075c-2.428,1.657-4.925,3.146-8.265,4.972
	c-3.339,1.827-7.521,3.993-10.59,5.549c-3.07,1.557-5.027,2.504-5.432,3.484c-0.405,0.981,0.742,1.996,2.495,2.503
	c1.754,0.508,4.116,0.508,6.949-0.202c2.833-0.711,6.14-2.132,9.85-3.315c3.71-1.185,7.826-2.132,12.615-2.538
	c4.79-0.405,10.255-0.271,14.167-0.169s6.274,0.169,9.107-0.304s6.139-1.489,9.343-1.793c3.205-0.305,6.309,0.102,8.871,0.88
	c2.563,0.777,4.588,1.928,7.15,2.469c2.564,0.542,5.668,0.474,8.67,0.609c3.001,0.136,5.903,0.474,8.027,0.102
	c2.125-0.372,3.476-1.455,4.824-2.098c1.349-0.644,2.698-0.846,3.812-0.204c1.112,0.644,1.99,2.133,3.001,4.466
	c1.012,2.335,2.159,5.516,2.193,7.646s-1.047,3.214-2.8,3.788c-1.754,0.575-4.183,0.643-7.218-0.236
	c-3.036-0.88-6.68-2.706-9.378-3.958s-4.452-1.929-7.319-1.692c-2.867,0.237-6.848,1.388-11.401,2.368
	c-4.553,0.981-9.681,1.794-15.179,2.673s-11.367,1.827-15.785,2.334c-4.419,0.508-7.388,0.575-10.895,0.643
	c-3.508,0.068-13.681-2.57-16.276-1.725c-2.597,0.845-0.333,2.464,0.241,4.121c0.573,1.657,5.578,6.062,8.209,7.752
	c2.631,1.691,5.6,3.383,7.96,4.06c2.361,0.677,4.115,0.339,6.173,0c2.058-0.338,4.419-0.677,7.188-0.642
	c2.77,0.034,5.948,0.443,8.781,0.68c2.834,0.236,5.322,0.303,8.32,0.303c2.998-0.002,6.506-0.07,9.373,0.472
	c2.867,0.541,5.094,1.691,7.218,2.672c2.125,0.98,4.15,1.794,6.511,1.692c2.361-0.102,5.06-1.117,7.488-1.692
	c2.429-0.574,4.588-0.71,7.05-1.149c2.462-0.44,5.229-1.185,6.981-1.32c1.755-0.135,2.497,0.339,2.901,1.726s0.473,3.688,0.135,6.19
	c-0.337,2.503-1.079,5.211-2.766,8.322s-4.317,6.631-7.555,8.728c-3.238,2.098-7.085,2.773-9.209,4.127
	c-2.125,1.353-2.53,3.383-3.946,5.412c-1.417,2.03-3.846,4.06-6.005,4.533c-2.158,0.475-4.048-0.608-5.768-0.271
	c-2.647,0.521-6.625,3.617-9.681,4.702c-3.891,1.383-6.915,3.932-11.164,4.567c-4.072,0.608-8.535,0.232-12.683,0.474
	c-7.887,0.454-15.3-1.685-23.309-0.914c-8.393,0.81-16.25-5.324-22.23-10.353c-4.167-3.504-7.005-4.915-7.891-10.452
	c-0.304-1.894-0.372-3.991-1.013-5.852s-1.854-3.484-3.17-4.229c-1.315-0.744-2.732-0.608-4.048,0.609s-2.53,3.519-3.711,5.886
	c-1.181,2.368-2.328,4.804-3.373,6.191c-1.045,1.387-1.99,1.726-2.9,1.692c-0.911-0.035-1.788-0.441-3.205-2.064
	c-1.416-1.623-3.373-4.466-3.812-7.273s0.642-5.582,1.281-7.746c0.642-2.165,0.845-3.723,0.912-5.143
	c0.067-1.421-0.001-2.706-0.507-3.653c-0.505-0.947-1.45-1.557-2.327-2.773c-0.876-1.218-1.688-3.046-1.484-4.905
	c0.203-1.86,1.417-3.756,2.057-5.582c0.642-1.826,0.71-3.586-0.234-5.243c-0.945-1.657-2.901-3.214-5.769-5.311
	c-2.867-2.099-6.645-4.737-10.389-8.593c-3.744-3.856-7.455-8.932-10.085-13.294c-2.632-4.364-4.184-8.019-5.837-14.581
	c-1.652-6.562-3.406-16.035-5.599-23.342s-4.823-12.448-7.05-19.146c-2.226-6.698-4.048-14.952-4.756-22.395
	s-0.304-14.073,0.641-21.38c0.945-7.307,2.429-15.29,3.542-24.694c1.112-9.404,4.589-32.263,4.959-41.803
	c0.371-9.539-10.921-0.482-10.517-6.876c0.404-6.393,9.774-16.204,11.595-20.061C159.32,224.952,162.154,221.77,167.55,217.746
	L167.55,217.746z M130.885,553.289c0.843,3.991,0.573,6.969,0.304,9.945c0.725,4.557,1.451,9.114,5.926,14.897
	c4.475,5.784,12.7,12.796,21.8,18.121c9.101,5.326,19.079,8.966,27.64,12c8.562,3.033,15.709,5.461,22.314,6.876
	c6.606,1.416,12.674,1.82,16.179,1.214c3.506-0.606,4.45-2.225,3.103-4.584c-1.35-2.359-4.989-5.462-7.686-8.09
	c-2.696-2.629-4.45-4.787-5.191-6.202c-0.742-1.415-0.472-2.091,1.349-2.428c1.819-0.336,5.19-0.336,9.775-0.336
	c4.583,0,10.382,0,15.234-0.27c4.854-0.27,8.765-0.81,13.079-0.676c4.313,0.136,9.034,0.945,12.674,2.765
	c3.64,1.82,6.202,4.651,9.235,7.281c3.033,2.629,6.54,5.056,9.91,6.674s6.606,2.427,8.291,1.82c1.687-0.607,1.821-2.63,1.215-5.259
	s-1.956-5.865-2.09-8.696c-0.136-2.831,0.943-5.258,2.156-6.472c1.214-1.214,2.562-1.214,4.247,0.337
	c1.686,1.55,3.709,4.652,5.124,7.888s2.225,6.606,3.977,10.111c1.753,3.507,4.45,7.146,7.821,11.596
	c3.37,4.449,7.415,9.708,11.056,13.482c3.64,3.775,6.876,6.068,17.055,10.314c10.18,4.247,27.304,10.45,39.842,12.741
	c12.539,2.293,20.495,0.675,28.112-1.887c7.618-2.562,14.898-6.068,20.764-10.314c5.865-4.247,10.314-9.236,12-14.225
	s0.605-9.978,0.337-13.617c-0.271-3.641,0.27-5.934,1.617-6.944c1.349-1.012,3.506-0.74,6.202-0.337
	c2.696,0.404,5.933,0.944,10.869,0.783c4.937-0.16,11.575-1.021,18.213-1.882c-3.575-1.218-7.151-2.436-9.95-3.45
	c-2.8-1.015-4.824-1.827-7.455-4.094s-5.869-5.988-8.163-9.676c-2.293-3.687-3.643-7.341-4.554-11.028
	c-0.91-3.686-1.382-7.407-1.585-10.655c-0.203-3.247-0.134-6.021-0.303-8.051c-0.169-2.029-0.574-3.315-1.147-4.601
	s-1.315-2.571-1.519-3.789c-0.202-1.217,0.136-2.368,1.586-3.349s4.015-1.793,6.915-3.349s6.139-3.857,8.062-6.326
	c1.922-2.47,2.53-5.108,2.294-7.883c-0.236-2.772-1.316-5.683-2.665-7.882c-1.349-2.198-2.969-3.688-5.296-5.108
	c-2.327-1.42-5.363-2.773-6.746-3.721c-1.384-0.947-1.113-1.488,0.202-1.793c1.315-0.304,3.678-0.372,6.072-0.338
	c2.394,0.034,4.823,0.169,7.083,1.049s4.352,2.503,6.308,4.128c1.956,1.622,3.778,3.247,5.329,4.16
	c1.552,0.913,2.834,1.116,3.879,0.846c1.046-0.271,1.855-1.015,2.733-1.59c0.876-0.575,1.82-0.98,2.529-0.609
	c0.707,0.372,1.181,1.522,1.384,3.587c0.202,2.062,0.134,5.04-1.08,7.712c-1.214,2.673-3.576,5.041-5.465,6.8
	s-3.306,2.909-4.723,4.059c0.81,0.136,1.62,0.271,3.172,0.136c1.551-0.136,3.845-0.541,7.252-2.198
	c3.406-1.657,7.926-4.568,11.367-9.101c3.438-4.532,5.801-10.689,6.982-15.764c1.18-5.074,1.18-9.066,1.314-11.874
	c0.135-2.807,0.405-4.432,1.147-4.601c0.741-0.169,1.956,1.117,2.799,2.707c0.844,1.589,1.316,3.484,1.788,5.379
	c0.27-2.774,0.54-5.549,1.248-8.83c0.708-3.28,1.855-7.07,1.855-10.284c0-3.212-1.147-5.853-1.688-8.728
	c-0.539-2.874-0.472-5.987-0.101-8.491c0.371-2.502,1.047-4.397,1.147-5.75c0.102-1.353-0.372-2.165-0.406-3.755
	c-0.033-1.59,0.372-3.958,1.788-6.8c1.417-2.841,3.846-6.157,6.173-11.164c2.328-5.006,4.555-11.703,5.971-18.198
	c1.417-6.495,2.024-12.787,1.99-18.302c-0.034-5.513-0.709-10.25-1.721-18.03c-1.011-7.78-2.36-18.605-2.732-25.271
	c-0.37-6.663,0.237-9.168,0.911-11.265c0.675-2.097,1.417-3.789,3.474-4.262c2.058-0.475,5.432,0.271,9.311,2.673
	c3.879,2.4,8.265,6.461,11.704,10.046c3.44,3.586,5.937,6.699,8.433,9.811c-3.643-6.63-7.286-13.261-11.67-18.505
	c-4.385-5.242-9.513-9.1-11.672-11.332c-2.158-2.232-1.348-2.841,0.305-2.672s4.148,1.117,6.375,2.537
	c2.226,1.42,4.182,3.315,6.139,5.21c-0.067-0.744-0.136-1.489-1.046-3.045c-0.911-1.556-2.665-3.925-4.587-5.954
	c-1.923-2.029-4.016-3.721-6.68-4.905c-2.664-1.184-5.902-1.86-9.006-2.639c-3.103-0.777-6.071-1.657-7.791-2.469
	c-1.72-0.812-2.193-1.557-2.496-3.281c-0.304-1.726-0.439-4.433-0.709-6.901s-0.675-4.702-1.079-6.935
	c-0.404,3.044-0.81,6.09-1.417,8.051c-0.606,1.962-1.416,2.842-2.698,2.978c-1.281,0.135-3.036-0.475-5.127-1.794
	c-2.091-1.318-4.52-3.349-6.712-6.122c-2.192-2.774-4.149-6.293-5.667-9.439c-1.518-3.145-2.598-5.92-2.699-7.543
	c-0.101-1.624,0.777-2.098,2.564-1.759c1.787,0.338,4.486,1.488,6.745,3.789c2.26,2.3,4.082,5.751,5.297,8.559
	c1.213,2.807,1.821,4.973,2.428,7.138c0.473-1.353,0.944-2.707,1.181-4.026c0.236-1.318,0.236-2.604-0.135-3.788
	c-0.371-1.185-1.113-2.267-1.484-3.18s-0.371-1.658-0.404-2.673s-0.102-2.3-0.405-3.586c-0.303-1.285-0.844-2.571-2.125-3.755
	s-3.305-2.267-4.991-2.977c-1.687-0.711-3.037-1.049-3.407-1.692c-0.372-0.642,0.236-1.589,0.709-2.469
	c0.471-0.88,0.81-1.691,4.317-2.74c3.508-1.048,10.187-2.334,16.09-2.808c5.902-0.473,11.029-0.135,16.156,0.203
	c-3.103-1.082-6.207-2.165-9.143-2.977c-2.934-0.812-5.699-1.354-8.263-1.624s-4.925-0.271-6.881-0.339
	c-1.956-0.067-3.508-0.202-4.52-0.405c-1.013-0.203-1.484-0.474-1.114-3.451c0.372-2.977,1.587-8.66,1.823-14.58
	c0.235-5.919-0.508-12.076-1.722-17.895s-2.9-11.299-4.52-15.121s-3.171-5.988-3.778-8.965s-0.27-6.766-1.855-10.96
	c-1.585-4.194-5.093-8.796-9.31-13.431c-4.216-4.634-9.142-9.303-12.379-12.279s-4.79-4.263-7.05-9.066
	c-2.26-4.803-5.228-13.125-9.376-19.587c-4.149-6.461-9.479-11.062-15.213-15.188c-5.734-4.127-11.874-7.781-17.878-11.164
	c-6.003-3.382-11.873-6.495-21.318-9.574c-9.443-3.077-22.464-6.122-31.941-8.592c-9.479-2.469-15.415-4.363-20.778-6.664
	c-5.363-2.3-10.153-5.007-14.066-7.307c-3.912-2.3-6.948-4.195-10.523-5.312s-7.691-1.454-11.84-1.353s-8.331,0.643-12.008,0.202
	c-3.677-0.439-6.848-1.86-11.873-2.977c-5.025-1.115-11.907-1.929-18.586-2.267c-6.678-0.338-13.155-0.202-17.54,0.475
	c-4.385,0.676-6.679,1.895-9.748,2.604c-3.068,0.71-6.915,0.913-11.502,1.522c-4.587,0.608-9.917,1.623-16.562,3.349
	c-6.644,1.725-14.605,4.161-22.531,7.069c-7.927,2.909-15.82,6.293-22.6,10.251c-6.779,3.957-12.447,8.491-17.102,12.686
	s-8.298,8.051-10.963,10.555c-2.664,2.503-4.351,3.652-7.656,6.359c-3.306,2.705-8.23,6.969-10.794,10.453
	c-2.563,3.483-2.767,6.191-3.407,8.49c-0.641,2.3-1.721,4.195-3.44,6.563c-1.72,2.367-4.081,5.209-5.903,9.1
	c-1.82,3.89-3.103,8.829-3.508,13.295c-0.404,4.465,0.068,8.457,0.473,11.637c0.404,3.179,0.742,5.548,0.337,7.713
	c-0.404,2.164-1.552,4.127-2.968,6.225c-1.416,2.097-3.104,4.329-4.015,6.935c-0.91,2.604-1.045,5.582-0.877,9.607
	c0.17,4.024,0.642,9.1,2.497,14.85c1.854,5.751,5.093,12.179,7.318,16.576c2.227,4.397,3.441,6.766,4.655,9.134
	c-0.539,1.691-1.079,3.383-2.429,6.09c-1.349,2.705-3.508,6.428-5.33,10.486c-1.82,4.06-3.305,8.457-5.228,11.637
	c-1.922,3.18-4.284,5.142-6.746,7.138s-5.026,4.026-7.083,5.887c-2.058,1.859-3.609,3.552-6.982,5.412
	c-3.372,1.86-8.567,3.89-12.042,5.582c-3.474,1.69-5.228,3.044-8.062,4.701c-2.833,1.658-6.746,3.62-9.646,4.737
	c-2.9,1.115-4.79,1.387-6.713,1.623c-1.922,0.237-3.879,0.44-5.734,1.421s-3.609,2.74-6.037,4.397
	c-2.429,1.657-5.533,3.214-8.534,4.127c-3.002,0.913-5.903,1.185-8.804,1.454c3.643,1.083,7.286,2.165,10.287,1.929
	c3.002-0.236,5.364-1.793,7.894-3.214s5.229-2.706,7.657-3.552s4.588-1.252,6.24-1.184c1.652,0.067,2.8,0.608,4.654,0.947
	c1.854,0.338,4.419,0.474,6.544,0.981c2.124,0.507,3.812,1.386,4.688,2.638c0.877,1.251,0.945,2.876,1.586,4.635
	c0.64,1.759,1.855,3.653,3.036,5.107c1.18,1.455,2.327,2.471,3.001,3.789c0.675,1.319,0.878,2.943,0.676,4.229
	s-0.811,2.233-1.891,2.707c-1.079,0.473-2.631,0.473-4.25-0.17c-1.618-0.643-3.305-1.929-4.418-3.653s-1.653-3.891-2.192-6.055
	c-0.271,2.57-0.54,5.142-0.169,7.408c0.371,2.266,1.383,4.229,1.99,5.582c0.606,1.353,0.81,2.097,0.338,2.503
	c-0.473,0.405-1.62,0.474-3.341-0.103c-1.719-0.574-4.013-1.792-6.138-3.246c-2.126-1.455-4.082-3.147-6.038-4.838
	c0.876,2.231,1.754,4.466,3.474,6.562s4.284,4.06,6.949,5.514c2.664,1.454,5.431,2.402,7.387,3.587
	c1.956,1.184,3.104,2.604,3.744,4.228c0.641,1.623,0.776,3.451,0.607,6.259c-0.169,2.807-0.642,6.597-0.811,10.148
	c-0.169,3.551-0.032,6.867,0.608,10.453c0.641,3.585,1.787,7.442,1.923,11.062c0.135,3.618-0.743,7.002-1.924,9.675
	c-1.181,2.671-2.664,4.634-4.317,6.359c-1.652,1.725-3.475,3.214-5.532,4.06c-2.057,0.846-4.351,1.048-6.61,0.777
	s-4.486-1.015-6.207-3.213c-1.72-2.199-2.934-5.854-2.899-9.033c0.033-3.179,1.314-5.887,2.597-8.592
	c-0.944,0.541-1.89,1.083-3.104,1.657c-1.215,0.575-2.698,1.185-4.048,3.383c-1.349,2.198-2.563,5.987-2.463,10.014
	c0.102,4.024,1.519,8.288,4.824,11.265c3.305,2.977,8.5,4.668,13.189,5.548c4.688,0.879,8.87,0.947,12.885,0.067
	c4.013-0.879,7.859-2.707,10.929-4.297c3.068-1.59,5.363-2.942,7.05-3.383c1.686-0.439,2.766,0.034,4.014,1.016
	c1.247,0.98,2.665,2.47,4.452,4.635c1.787,2.164,3.946,5.007,5.565,7.408s2.699,4.364,3.104,5.886
	c0.404,1.522,0.134,2.604-0.743,3.654c-0.877,1.048-2.361,2.062-3.778,3.349c-1.416,1.285-2.766,2.842-3.575,4.025
	c-0.809,1.184-1.079,1.996-0.944,3.044c0.135,1.049,0.675,2.335,0.54,3.147c-0.135,0.811-0.945,1.148-2.294,1.251
	c-1.349,0.101-3.238-0.034-6.207-0.981c-2.968-0.947-7.016-2.707-9.781-4.871c-2.767-2.164-4.25-4.736-4.857-7.037
	c-0.607-2.3-0.337-4.329,0.067-6.799c0.404-2.469,0.945-5.379,1.484-8.288c-1.552,1.15-3.104,2.301-4.925,4.025
	c-1.821,1.726-3.913,4.026-4.992,6.8c-1.078,2.773-1.147,6.022-0.675,9.743c0.473,3.72,1.484,7.916,3.88,11.84
	c2.394,3.924,6.173,7.578,10.321,10.589c4.148,3.009,8.668,5.378,13.188,7.746c-4.925-0.068-9.85-0.136-14.032-0.88
	s-7.623-2.165-10.49-4.161c-2.867-1.995-5.16-4.567-7.454-7.138c0.742,3.111,1.483,6.225,2.9,9.032
	c1.416,2.807,3.509,5.312,4.689,7.341c1.18,2.029,1.45,3.586,1.889,5.277c0.438,1.69,1.046,3.519,2.058,5.312
	c1.012,1.792,2.429,3.552,4.082,4.668c1.652,1.116,3.541,1.59,7.589,1.86c4.047,0.271,10.254,0.339,14.571,0.406
	c4.316,0.067,6.746,0.135,9.175,0.203c-1.349,1.759-2.698,3.519-3.846,6.394c-1.146,2.874-2.091,6.867-3.542,10.858
	c-1.449,3.991-3.406,7.984-5.363,11.976c2.294-0.068,4.588-0.136,7.591-0.981c3.002-0.846,6.711-2.47,10.456-4.229
	c3.743-1.759,7.521-3.654,10.052-6.19c2.529-2.536,3.812-5.717,5.094-8.896c1.078,2.638,2.158,5.277,3.677,9.1
	C128.086,544.291,130.042,549.298,130.885,553.289L130.885,553.289z M499.258,471.29c1.619-1.759,3.575-3.519,5.195-4.5
	c1.618-0.98,2.9-1.184,3.574-0.812c0.675,0.372,0.743,1.319,0.844,3.281c0.101,1.961,0.236,4.939,0.37,8.254
	c0.136,3.314,0.271,6.969-0.1,9.101c-0.371,2.131-1.249,2.739-2.059,2.165c-0.81-0.575-1.552-2.335-2.091-3.992
	s-0.878-3.214-1.282-4.5c-0.405-1.285-0.877-2.3-1.551-2.773c-0.675-0.474-1.553-0.406-2.666-0.033
	c-1.112,0.371-2.462,1.048-3.238,0.946c-0.775-0.102-0.978-0.98-0.438-2.3C496.357,474.807,497.639,473.048,499.258,471.29
	L499.258,471.29z M245.404,150.658c-0.551,0.085-1.043-0.179-1.101-0.973c-0.058-0.793,0.317-2.117,0.728-3.358
	s0.854-2.4,1.124-3.476c0.271-1.073,0.366-2.064,0.064-2.649c-0.303-0.584-1.006-0.763-2.293-1.147
	c-1.286-0.385-3.159-0.975-4.695-1.521c-1.535-0.547-2.738-1.048-3.636-1.514c-0.899-0.465-1.496-0.895-1.474-1.279
	c0.021-0.386,0.663-0.729,1.501-1.049c0.836-0.321,1.869-0.62,3.073-0.938c1.202-0.318,2.577-0.656,3.799-0.843
	c1.222-0.186,2.294-0.22,3.045-0.329c0.75-0.107,1.181-0.291,1.372-0.753c0.192-0.461,0.146-1.202,0.174-2.321
	c0.029-1.118,0.132-2.616,0.243-4.186c0.111-1.568,0.229-3.21,0.397-4.287c0.169-1.078,0.387-1.594,0.699-2.014
	c0.312-0.421,0.72-0.748,1.181-0.689c0.46,0.06,0.975,0.504,1.455,1.337c0.48,0.834,0.927,2.057,1.354,3.205
	c0.428,1.146,0.837,2.219,1.326,3.435c0.488,1.214,1.057,2.574,1.755,3.346c0.699,0.772,1.529,0.958,2.666,0.89
	c1.135-0.068,2.576-0.392,4.009-0.698c1.434-0.308,2.86-0.601,4.166-0.745c1.305-0.145,2.49-0.143,3.147,0.07
	c0.656,0.214,0.785,0.637,0.658,1.197c-0.128,0.56-0.513,1.256-1.599,2.058c-1.085,0.802-2.873,1.708-4.498,2.516
	c-1.624,0.807-3.088,1.517-4.096,1.988c-1.005,0.472-1.557,0.708-1.828,1.027c-0.271,0.318-0.263,0.72-0.017,1.399
	c0.246,0.679,0.731,1.637,1.511,3.062c0.778,1.426,1.853,3.319,2.478,4.697c0.624,1.377,0.799,2.239,0.906,2.953
	c0.105,0.713,0.146,1.28,0.003,1.605c-0.144,0.326-0.469,0.411-1.171,0.138s-1.782-0.906-2.807-1.67
	c-1.023-0.762-1.99-1.658-2.803-2.43c-0.812-0.771-1.47-1.421-2.062-1.838s-1.121-0.604-1.906-0.238
	c-0.783,0.366-1.824,1.284-2.714,2.222c-0.889,0.937-1.627,1.892-2.301,2.587C246.565,150.139,245.953,150.572,245.404,150.658
	L245.404,150.658z"/>
<path id="path2630" fill="#1F1A17" stroke="#1F1A17" stroke-width="0.0176" stroke-linecap="round" stroke-linejoin="round" d="
	M207.151,264.191c-2.142,0.405-4.604,0.44-6.577,0.237c-1.974-0.203-3.458-0.644-5.465-1.15c-2.007-0.508-4.538-1.083-6.763-1.37
	c-2.227-0.287-4.15-0.287-6.309-0.136c-2.158,0.152-4.554,0.457-6.628,1.86s-3.828,3.908-5.649,5.751
	c-1.821,1.844-3.711,3.028-5.127,4.686c-1.417,1.658-2.361,3.789-2.429,5.699c-0.067,1.912,0.742,3.604,1.99,5.159
	c1.248,1.557,2.935,2.978,4.873,3.653c1.94,0.677,4.133,0.609,5.971,0.034c1.839-0.574,3.323-1.658,4.065-2.604
	c0.742-0.947,0.742-1.759,0.927-2.452c0.187-0.693,0.557-1.269,1.299-1.438c0.742-0.17,1.855,0.067,3.475-0.102
	s3.744-0.745,5.717-1.15c1.974-0.406,3.796-0.644,5.194-0.745c1.4-0.102,2.379-0.066,2.362,0.491
	c-0.018,0.558-1.029,1.641-2.58,3.027c-1.552,1.387-3.645,3.079-5.702,4.414c-2.057,1.337-4.081,2.318-6.762,3.891
	c-2.683,1.573-6.021,3.738-9.344,6.309c-3.322,2.571-6.628,5.549-7.522,8.424c-0.894,2.875,0.625,5.65,2.446,7.442
	c1.82,1.793,3.946,2.605,5.801,2.571s3.441-0.913,5.026-1.996c1.585-1.082,3.171-2.368,5.565-2.317
	c2.395,0.05,5.6,1.438,8.433,1.995c2.833,0.559,5.297,0.288,6.797-0.169c1.501-0.456,2.041-1.099,1.872-1.556
	s-1.046-0.728-2.074-0.862c-1.029-0.136-2.21-0.136-3.39-0.271c-1.181-0.136-2.362-0.406-3.29-0.609
	c-0.927-0.203-1.602-0.338-1.854-0.643s-0.084-0.778,0.186-1.235c0.271-0.456,0.641-0.896,0.978-1.64
	c0.338-0.744,0.643-1.794,0.911-2.622c0.271-0.829,0.507-1.438,1.08-2.062c0.572-0.627,1.483-1.27,2.276-1.861
	s1.468-1.134,1.956-1.455c0.489-0.32,0.794-0.424,1.097-0.203c0.304,0.22,0.606,0.761,1.079,1.488s1.113,1.642,2.176,2.538
	c1.062,0.896,2.546,1.776,4.047,2.147c1.501,0.372,3.021,0.236,4.808-0.084c1.788-0.321,3.845-0.829,5.211-1.675
	c1.365-0.846,2.041-2.03,2.749-3.552c0.708-1.522,1.45-3.384,1.938-4.871c0.489-1.488,0.727-2.605,1.132-3.214
	c0.403-0.608,0.978-0.711,2.002-0.652c1.025,0.06,2.504,0.28,4.14,0.61c1.637,0.33,3.433,0.771,4.835,1.27
	c1.403,0.499,2.415,1.057,3.477,1.792c1.062,0.734,2.176,1.648,3.372,2.359c1.197,0.71,2.48,1.218,2.952,1.116
	c0.473-0.102,0.134-0.812,0.083-1.691c-0.05-0.88,0.188-1.929,0.827-2.571c0.642-0.643,1.688-0.88,2.8-1.234
	c1.112-0.355,2.294-0.829,3.728-1.624c1.433-0.795,3.12-1.911,4.3-3.061c1.181-1.15,1.856-2.336,2.024-3.52
	c0.169-1.184-0.169-2.368-0.657-4.414c-0.489-2.047-1.131-4.957-2.091-7.206c-0.962-2.249-2.244-3.839-3.154-4.803
	c-0.911-0.965-1.45-1.303-2.479-2.132c-1.029-0.828-2.548-2.148-3.998-2.994c-1.45-0.845-2.833-1.218-4.334-0.947
	s-3.121,1.185-4.554,1.624c-1.434,0.44-2.683,0.406-3.761,0.119c-1.08-0.288-1.991-0.829-3.222-1.218s-2.783-0.627-4.368-0.238
	c-1.585,0.39-3.205,1.404-4.571,1.946c-1.366,0.541-2.479,0.609-3.355,0.39c-0.877-0.221-1.519-0.729-2.176-1.218
	c-0.657-0.491-1.332-0.965-2.58-0.812C211.115,263.007,209.292,263.786,207.151,264.191L207.151,264.191z"/>
<path id="path2632" fill="#1F1A17" stroke="#1F1A17" stroke-width="0.0176" stroke-linecap="round" stroke-linejoin="round" d="
	M228.401,413.306c-2.563,1.015-4.857,1.895-6.948,3.281c-2.092,1.387-3.98,3.281-5.835,4.973c-1.855,1.691-3.678,3.18-5.128,4.904
	c-1.45,1.726-2.53,3.688-2.867,5.819s0.068,4.432-0.066,6.799c-0.136,2.368-0.811,4.805-0.608,6.022s1.283,1.218,1.855,2.097
	c0.572,0.88,0.642,2.64,0.473,4.397c-0.169,1.759-0.574,3.52,0.1,5.007c0.676,1.488,2.43,2.706,3.778,4.025
	c1.35,1.319,2.295,2.74,3.509,3.079c1.214,0.338,2.698-0.406,3.71-1.387c1.013-0.981,1.552-2.199,1.99-4.466
	s0.777-5.583,1.147-8.592c0.371-3.011,0.776-5.718,1.383-7.409s1.417-2.368,1.822-3.653c0.403-1.285,0.403-3.181,0.909-4.973
	c0.507-1.793,1.519-3.484,3.171-4.363c1.652-0.88,3.947-0.948,6.038-1.286s3.981-0.947,4.79-1.691
	c0.81-0.744,0.54-1.624,0.438-2.739c-0.102-1.117-0.033-2.471,0.438-3.857c0.473-1.387,1.351-2.808,2.599-4.093
	c1.247-1.286,2.867-2.436,4.08-3.451c1.215-1.015,2.024-1.895,2.059-2.638c0.033-0.744-0.709-1.354-2.192-1.557
	c-1.484-0.202-3.711,0-5.902,0.473c-2.193,0.474-4.353,1.219-6.848,2.166C233.798,411.141,230.963,412.292,228.401,413.306
	L228.401,413.306z"/>
<path id="path2634" fill="#1F1A17" stroke="#1F1A17" stroke-width="0.0176" stroke-linecap="round" stroke-linejoin="round" d="
	M254.037,403.7c0.27,1.218,0.539,2.842,0.641,4.093c0.102,1.252,0.033,2.132,0.473,2.909c0.438,0.778,1.383,1.455,2.124,1.793
	c0.742,0.339,1.283,0.339,2.261-0.033s2.395-1.116,3.474-2.604c1.08-1.488,1.822-3.723,2.294-6.19
	c0.472-2.47,0.675-5.177,0.81-7.409c0.135-2.233,0.203-3.992,0.034-5.345c-0.169-1.354-0.574-2.301-1.214-2.842
	c-0.641-0.541-1.519-0.677-2.598,0.102c-1.079,0.777-2.361,2.47-3.643,3.653c-1.282,1.184-2.563,1.86-3.475,3.28
	c-0.91,1.421-1.451,3.587-1.585,5.075C253.497,401.67,253.768,402.482,254.037,403.7L254.037,403.7z"/>
<path id="path2636" fill="#1F1A17" stroke="#1F1A17" stroke-width="0.0176" stroke-linecap="round" stroke-linejoin="round" d="
	M292.185,375.37c0.558,0.896,1.84,1.979,3.121,2.858c1.282,0.88,2.563,1.557,3.475,1.793c0.911,0.237,1.451,0.034,1.905-0.423
	c0.456-0.456,0.827-1.167,0.962-1.995c0.136-0.829,0.033-1.776-0.404-2.656c-0.438-0.879-1.215-1.691-2.21-2.232
	c-0.995-0.542-2.209-0.812-3.271-0.964c-1.062-0.152-1.974-0.187-2.58,0.05c-0.607,0.237-0.911,0.745-1.147,1.354
	C291.799,373.762,291.629,374.474,292.185,375.37L292.185,375.37z"/>
<path id="path2638" fill="#1F1A17" stroke="#1F1A17" stroke-width="0.0176" stroke-linecap="round" stroke-linejoin="round" d="
	M294.245,366.692c1.686,0.474,3.508,0.676,4.925,0.676c1.416,0,2.428-0.202,3.812-0.271c1.382-0.067,3.137,0,3.98,0.44
	c0.843,0.439,0.774,1.252,0.201,2.132c-0.572,0.878-1.652,1.826-1.618,2.807c0.033,0.981,1.18,1.996,3.508,2.402
	c2.327,0.405,5.835,0.203,8.77,0s5.296-0.406,6.882-1.522c1.584-1.116,2.395-3.146,2.766-4.771c0.371-1.623,0.303-2.841-0.642-4.498
	c-0.943-1.658-2.766-3.756-4.688-5.549c-1.922-1.792-3.946-3.281-5.835-3.924c-1.89-0.643-3.644-0.439-6.038-0.338
	s-5.431,0.102-8.669,0.271c-3.237,0.169-6.678,0.507-9.073,1.184c-2.394,0.677-3.744,1.692-5.262,2.437s-3.205,1.218-5.431,1.421
	c-2.227,0.202-4.992,0.135-7.59,0.033c-2.597-0.102-5.026-0.236-7.285-0.812c-2.26-0.574-4.352-1.589-6.712-1.826
	c-2.361-0.236-4.993,0.305-7.422,0.948c-2.429,0.642-4.654,1.386-6.274,2.333c-1.618,0.946-2.63,2.098-3.305,3.587
	c-0.674,1.487-1.013,3.314-1.147,5.039c-0.135,1.726-0.066,3.35,0.54,4.838s1.755,2.842,2.9,3.89
	c1.147,1.049,2.295,1.794,3.408,2.166c1.112,0.371,2.192,0.371,2.429-0.508c0.236-0.88-0.372-2.64-0.776-4.364
	c-0.405-1.725-0.607-3.417-0.439-4.702c0.169-1.285,0.709-2.164,1.519-2.232c0.809-0.067,1.89,0.677,3.373,1.252
	c1.483,0.574,3.373,0.981,5.06,1.116c1.687,0.136,3.171-0.001,4.149-0.745c0.979-0.743,1.45-2.097,2.293-2.908
	c0.844-0.812,2.058-1.083,2.969-0.542c0.91,0.542,1.519,1.896,2.53,3.146c1.011,1.251,2.429,2.402,4.081,2.977
	c1.652,0.575,3.541,0.575,5.262,0.136c1.72-0.439,3.271-1.319,4.115-2.402c0.843-1.082,0.979-2.367,1.519-3.281
	c0.539-0.913,1.483-1.454,2.731-1.353C291.006,365.474,292.559,366.219,294.245,366.692L294.245,366.692z"/>
<path id="path2640" fill="#1F1A17" stroke="#1F1A17" stroke-width="0.0176" stroke-linecap="round" stroke-linejoin="round" d="
	M304.971,339.426c0.876,1.149,1.687,2.165,2.766,2.841c1.079,0.677,2.43,1.016,3.44,1.421c1.012,0.406,1.687,0.88,2.125,1.387
	c0.438,0.508,0.641,1.05,0.978,1.354c0.338,0.305,0.81,0.373,1.046,0.001s0.236-1.185-0.033-2.402s-0.811-2.842-1.586-4.5
	c-0.775-1.657-1.787-3.349-2.934-4.87c-1.147-1.522-2.43-2.876-3.07-4.093c-0.641-1.219-0.641-2.301-1.248-2.673
	c-0.607-0.373-1.821-0.034-2.731,0.811c-0.911,0.846-1.519,2.2-1.722,3.451c-0.202,1.251,0.001,2.402,0.574,3.62
	C303.15,336.99,304.094,338.275,304.971,339.426L304.971,339.426z"/>
<path id="path2642" fill="#1F1A17" stroke="#1F1A17" stroke-width="0.0176" stroke-linecap="round" stroke-linejoin="round" d="
	M362.952,374.199c-0.844,1.624-1.451,3.79-2.159,5.075s-1.519,1.691-1.755,2.639s0.103,2.436,0.844,4.093
	c0.742,1.657,1.89,3.485,1.822,5.379c-0.067,1.895-1.351,3.857-2.092,5.379s-0.944,2.605-0.438,3.146s1.72,0.541,3.271,0.034
	c1.552-0.508,3.442-1.523,5.331-2.876c1.889-1.354,3.777-3.045,5.396-5.615c1.618-2.571,2.969-6.022,3.609-9.101
	c0.642-3.077,0.573-5.785-0.135-7.813c-0.708-2.029-2.059-3.384-3.947-3.958c-1.889-0.576-4.317-0.372-6.07,0.271
	C364.875,371.493,363.794,372.576,362.952,374.199L362.952,374.199z"/>
</svg>
