<?xml version="1.0"?><svg width="640" height="480" xmlns="http://www.w3.org/2000/svg">
 <g>
  <path stroke-width="4" fill="#ffffff" stroke="#000000" id="path2909" d="m322.804535,376.052338l-269.804535,-38.60434c36.489563,-44.612 59.854149,-87.365555 82.302765,-135.858841c36.570969,-56.398575 95.499161,-93.100441 164.82428,-117.474724c43.946381,-17.655884 67.22641,-21.98291 112.621887,-21.409363l51.731506,-38.705009l-21.891693,58.464043l8.455597,9.214722c2.490479,2.823074 58.217499,-20.502007 58.217499,-20.502007l-43.493408,56.109756c11.812256,58.677124 17.167206,114.664291 35.436737,176.031662c0,0 0.667236,21.660126 -9.180878,31.887207c-9.848114,10.227448 -49.395691,16.265167 -49.395691,16.265167c0,0 -20.13623,-11.561157 -22.675262,-19.033569c-2.539001,-7.472382 3.827789,-17.329193 3.827789,-17.329193c-21.930878,-30.501801 -44.256012,-44.881836 -82.69165,-69.029663c-17.181671,29.035339 -26.020355,75.528992 -18.284821,129.974152l-0.000122,0z"/>
  <title>Layer 1</title>
 </g>
</svg>