<?xml version="1.0" encoding="utf-8"?>
<!-- Generator: Adobe Illustrator 17.0.0, SVG Export Plug-In . SVG Version: 6.00 Build 0)  -->
<!DOCTYPE svg PUBLIC "-//W3C//DTD SVG 1.1//EN" "http://www.w3.org/Graphics/SVG/1.1/DTD/svg11.dtd">
<svg version="1.1" id="Livello_1" xmlns="http://www.w3.org/2000/svg" xmlns:xlink="http://www.w3.org/1999/xlink" x="0px" y="0px"
	 width="1280px" height="720px" viewBox="0 0 1280 720" enable-background="new 0 0 1280 720" xml:space="preserve">
<path fill="none" stroke="#000000" stroke-miterlimit="10" d="M81.795,120.399c-8.539,0-15.462-6.922-15.462-15.462l0,0
	c0-8.539,6.922-15.462,15.462-15.462h97.924c8.539,0,15.462,6.922,15.462,15.462l0,0c0,8.539-6.922,15.462-15.462,15.462H81.795z"/>
<path fill="none" stroke="#000000" stroke-miterlimit="10" d="M81.795,162.489c-8.539,0-15.462-6.922-15.462-15.462l0,0
	c0-8.539,6.922-15.462,15.462-15.462h97.924c8.539,0,15.462,6.922,15.462,15.462l0,0c0,8.539-6.922,15.462-15.462,15.462H81.795z"/>
<path fill="none" stroke="#000000" stroke-miterlimit="10" d="M81.795,76.59c-8.539,0-15.462-6.922-15.462-15.462l0,0
	c0-8.539,6.922-15.462,15.462-15.462h97.924c8.539,0,15.462,6.922,15.462,15.462l0,0c0,8.539-6.922,15.462-15.462,15.462H81.795z"/>
</svg>
